<svg width="85" height="75" viewBox="0 0 85 75" fill="none" xmlns="http://www.w3.org/2000/svg">
<path fill-rule="evenodd" clip-rule="evenodd" d="M64.5724 65.5858H49.4708V42.2594H63.6351C65.5047 42.2594 67.3744 42.885 68.6351 43.5139C69.8622 44.1259 71.3422 45.3642 71.3422 47.1758V60.1464C71.3422 61.3304 70.0557 63.1267 69.1303 63.992C68.1564 64.9027 66.4349 65.5858 64.5724 65.5858ZM59.2608 0H67.5025C68.3627 0.0427382 69.1924 0.113421 69.9721 0.225465C74.329 0.851604 78.5884 3.46423 80.6127 7.44095L80.8199 7.84791C81.3044 8.79131 81.4154 9.17368 81.771 10.2371C82.7242 13.086 82.5903 16.4914 82.5903 20.2929C82.5903 25.5783 83.3682 31.0613 80.8203 34.9378C80.3242 35.6924 78.8014 37.3395 78.0077 37.5523C78.1659 38.1476 81.8288 39.978 83.667 43.6884C85.2338 46.8515 84.9856 49.5291 84.9856 54.0795C84.9856 56.0484 84.8981 63.9321 84.6296 65.4374C84.1137 68.3305 82.376 70.9552 79.9433 72.4462C78.6218 73.2561 77.5392 73.7496 75.8886 74.2315C74.692 74.5808 72.6143 74.9656 71.0773 75H35.8273V42.2594C33.536 42.2594 31.2447 42.2594 28.9535 42.2594C24.6388 42.2594 22.8665 41.6403 19.6487 43.2697C16.5966 44.8154 13.7286 47.2023 13.7452 51.0436L13.7477 75H0C0 66.7015 0 58.403 0 50.1046V49.9679C0.00184554 47.1275 0.0674058 46.1296 1.02825 44.0244C1.5209 42.9447 2.44988 41.7462 3.34735 41.0188C3.6571 40.7678 3.85551 40.5722 4.20904 40.3151C6.21854 38.8542 9.96237 37.6569 12.3938 37.6569V37.5523C10.7329 37.5523 9.00881 37.1169 7.71817 36.7042C6.48978 36.3116 5.12559 35.5771 4.12232 34.8765C1.59089 33.1085 0.502743 30.7609 0.040215 27.6925C0.0351705 27.6584 0.0287729 27.6352 0.0242382 27.6005L0 17.0503V11.4315C0.0765108 9.77448 0.285864 8.1973 0.801403 6.97641C1.34844 5.6809 2.12193 4.59901 3.04426 3.68514C3.29348 3.4383 3.5053 3.29201 3.78171 3.06592C7.11087 0.342841 11.3519 0 15.6223 0H59.2608ZM61.4479 32.5313H49.4708L49.4758 8.05941C49.4804 8.0273 49.4855 7.99974 49.4916 7.97058L49.5432 7.81331C49.6715 7.40487 55.3497 7.63602 56.1363 7.63602C57.9243 7.63602 61.1597 7.44515 62.7724 7.66457C63.8447 7.81047 64.6381 7.80379 65.6756 8.0971C66.4829 8.32541 67.3216 8.76623 67.8761 9.23423C69.0271 10.2058 69.7799 12.0224 69.7799 14.1213V27.5104C69.7799 29.2875 68.1333 30.6841 66.9001 31.3127C65.4303 32.0621 63.6011 32.5313 61.4479 32.5313ZM13.7477 26.2552V15.5857C13.7477 12.0795 14.7332 9.10005 18.108 8.0404C19.0124 7.75649 20.4448 7.63602 21.663 7.63602C26.3844 7.63602 31.1059 7.63602 35.8273 7.63602V32.6355C35.0056 32.3167 23.5614 32.5313 21.663 32.5313C19.4849 32.5313 18.0609 32.3475 16.3244 30.7803C15.0048 29.5894 13.7477 28.2665 13.7477 26.2552Z" fill="white"/>
</svg>
