<svg width="231" height="332" viewBox="0 0 231 332" fill="none" xmlns="http://www.w3.org/2000/svg">
<path fill-rule="evenodd" clip-rule="evenodd" d="M107.557 75.7828C120.169 73.1594 131.238 77.0311 139.377 83.0206C167.193 103.489 157.762 147.976 123.046 154.965C98.7011 159.867 79.472 142.401 75.6279 123.234C70.6132 98.2294 87.7383 79.9051 107.557 75.7828ZM0.591033 125.858C2.84703 147.699 9.17133 161.688 18.3299 177.791C27.4771 193.875 36.644 205.985 46.8865 219.363C65.3132 243.431 95.3627 275.443 102.806 303.693C105.323 313.247 102.883 327.393 110.657 330.936C116.005 333.373 121.512 330.783 123.559 327.52C126.226 323.268 125.507 317.657 126.009 312.471C128.887 282.731 161.593 247.213 178.978 225.132C198.683 200.103 222.978 168.474 228.713 134.573C246.26 30.8544 125.686 -41.7949 41.444 26.9067C19.3371 44.9354 -4.03549 81.0771 0.591033 125.858Z" fill="white"/>
</svg>
