<svg width="74" height="50" viewBox="0 0 74 50" fill="none" xmlns="http://www.w3.org/2000/svg">
<path fill-rule="evenodd" clip-rule="evenodd" d="M73.0423 43.2122C72.9369 45.0048 72.7556 46.6811 73.0823 47.8411C73.4089 49.0037 74.2433 49.6526 73.9314 49.7905C73.6216 49.9284 72.1679 49.5553 70.6169 48.3629C69.203 47.276 67.7093 45.5131 66.6197 43.6961C64.26 48.198 59.46 50.3042 54.9338 49.9635C53.3282 50.0771 51.6468 49.9311 49.7841 49.4444C46.99 48.7144 43.7894 47.2219 40.8986 46.4918C38.0062 45.7618 35.4272 45.7943 33.3357 46.4757C31.247 47.157 29.6457 48.4873 28.9594 48.5522C28.2759 48.617 28.5019 47.4166 29.2862 46.1431C30.0705 44.8696 31.4104 43.5258 32.979 42.5849C34.5449 41.6439 36.3395 41.1086 38.4163 40.8409C40.4895 40.5732 42.8413 40.5732 45.3087 41.1572L45.3402 41.1654C45.5404 38.3832 47.7149 36.1958 50.0537 35.9984C51.67 35.8632 53.0586 36.869 53.1974 37.3557C53.3366 37.8424 52.2264 37.8072 51.5414 38.3832C49.9652 39.7026 51.0082 43.1229 54.3587 43.223C58.1408 43.3339 61.3036 40.1109 60.3763 35.3576C59.363 30.1555 54.1901 28.2358 48.9581 28.9225C39.4065 30.1744 29.5477 43.423 15.2314 48.1412C11.3262 49.4282 7.40734 49.9311 3.62746 49.7662C2.53812 49.8689 1.40799 49.8149 -2.8821e-06 49.6202V38.3102C0.394925 38.4643 0.80341 38.5968 1.23095 38.7076C16.2635 42.5389 25.874 28.252 40.1799 21.8494C45.06 19.6647 49.7819 18.8725 54.1035 19.5566C63.7362 21.6579 73.6302 33.0623 73.0423 43.2122ZM-2.8821e-06 12.3104C7.45363 12.0508 14.7793 16.3066 14.8337 23.7854C14.8855 30.799 8.00373 33.9868 3.81261 31.5561C2.65525 30.8882 2.07792 29.877 2.09154 29.5471C2.11328 29.0091 4.37909 30.5692 6.47874 28.4818C10.3676 24.6235 6.02664 18.7454 -2.8821e-06 20.4867V12.3104ZM-2.8821e-06 0C3.04737 0.129752 6.14922 0.689441 9.32184 1.39246C14.9481 2.64159 18.423 4.30441 22.9736 2.65511C24.3625 2.15218 25.3429 1.50597 25.5553 1.87909C25.9339 2.54428 24.1556 6.362 20.6697 7.77884C15.4437 9.9067 7.47543 6.76762 -2.8821e-06 7.69498V0Z" fill="#939393"/>
</svg>
