<svg width="128" height="70" viewBox="0 0 128 70" fill="none" xmlns="http://www.w3.org/2000/svg">
<path fill-rule="evenodd" clip-rule="evenodd" d="M70.0881 34.9999C69.7772 34.7759 69.4817 34.5355 69.2062 34.277C68.3539 33.4807 67.6993 32.5315 67.2408 31.5027C64.9248 35.3808 64.9248 34.6192 67.2408 38.4973C67.6993 37.4685 68.3539 36.5175 69.2062 35.7209C69.4817 35.4642 69.7772 35.2242 70.0881 34.9999ZM99.5146 34.9999C99.0509 34.7372 98.6041 34.4624 98.1827 34.1872C96.7781 33.2667 95.6551 32.3359 94.5045 31.7757C93.3543 31.2158 92.1773 31.0302 91.2544 31.0955C90.3309 31.1627 89.6623 31.4825 89.4887 31.3766C89.3144 31.2706 89.6357 30.737 90.3714 30.2584C91.1069 29.7777 92.2571 29.3521 93.4344 29.2054C94.6116 29.0585 95.815 29.1931 97.166 29.6716C98.5169 30.1505 100.015 30.9773 101.313 31.5091C102.61 32.0427 103.707 32.2829 104.697 32.3217C105.687 32.3622 106.569 32.2016 107.318 31.9223C108.067 31.6433 108.683 31.2442 109.065 30.9244C109.446 30.6046 109.594 30.3642 109.695 29.9101C109.796 29.4579 109.849 28.7919 109.722 28.1604C109.595 27.5271 109.287 26.9284 108.732 26.5475C108.177 26.1684 107.375 26.0097 106.739 26.0953C106.104 26.1808 105.636 26.5149 105.301 26.9874C104.966 27.4599 104.765 28.073 104.838 28.5394C104.911 29.0057 105.258 29.3255 104.991 29.4313C104.723 29.5395 103.841 29.4313 102.784 29.0464C101.727 28.6595 100.497 27.9935 99.079 27.2072C97.6611 26.4211 96.0559 25.5166 94.3438 24.37C92.6317 23.2254 90.8126 21.8403 89.1942 20.7078C87.5757 19.5754 86.1581 18.6977 84.4593 18.1641C82.7605 17.6324 80.7808 17.4449 79.1222 17.8056C78.1768 18.009 77.3356 18.3921 76.6284 18.8443C76.4642 18.9828 76.3032 19.1397 76.1565 19.3147C75.6121 19.9686 75.2613 20.9015 75.2203 21.712C75.1796 22.5228 75.4477 23.2133 75.8575 23.7367C76.2672 24.2621 76.8182 24.6246 77.4456 24.8162C78.0729 25.0097 78.7772 25.032 79.3924 24.7754C80.0073 24.5187 80.5339 23.983 80.8202 23.4637C81.1068 22.9443 81.1536 22.4433 81.0952 22.099C81.0365 21.7547 80.8723 21.5675 80.6262 21.4454C80.3803 21.323 80.052 21.264 80.0929 21.1356C80.1342 21.0074 80.5442 20.8099 81.0775 20.8565C81.611 20.9015 82.2668 21.1948 82.7065 21.6673C83.1459 22.1398 83.3688 22.7934 83.4388 23.3884C83.5094 23.983 83.4274 24.5187 83.2807 24.9404C83.1343 25.3601 82.9233 25.6633 82.6891 25.9892C82.4543 26.3172 82.1968 26.6675 81.8507 26.9771C81.5052 27.2846 81.0716 27.5536 80.4038 27.8224C79.7358 28.0911 78.8335 28.3581 77.7552 28.411C76.677 28.4639 75.4231 28.3009 74.4154 27.8795C73.4572 27.4802 72.7213 26.8489 72.027 26.0768C71.9736 26.8284 71.9961 27.5799 72.1761 28.2399C72.4439 29.2175 73.0588 29.9896 73.8615 30.5498C74.6641 31.1097 75.6537 31.4561 76.5969 31.5762C77.5399 31.6962 78.4362 31.5883 79.3993 31.2421C80.3621 30.896 81.3918 30.3092 82.5759 29.4905C83.7597 28.6718 85.0969 27.6186 86.3546 26.8997C87.6119 26.1808 88.7892 25.796 89.9124 25.7225C91.0362 25.6491 92.1059 25.8876 92.7748 26.1277C93.4439 26.3682 93.7114 26.6086 93.2765 26.7999C92.8419 26.9935 91.7049 27.1401 90.414 27.859C89.1233 28.5781 87.6788 29.8715 86.4013 31.1566C85.1239 32.4417 84.0138 33.7189 82.7697 34.6903C82.6328 34.7982 82.4948 34.9001 82.3546 34.9999C82.4948 35.0999 82.6328 35.2015 82.7697 35.3097C84.0138 36.2811 85.1239 37.558 86.4013 38.8434C87.6788 40.1286 89.1233 41.4219 90.414 42.1408C91.7049 42.86 92.8419 43.0066 93.2765 43.2001C93.7114 43.3915 93.4439 43.6317 92.7748 43.8722C92.1059 44.1125 91.0362 44.3508 89.9124 44.2776C88.7892 44.2042 87.6119 43.8192 86.3546 43.1003C85.0969 42.3793 83.7597 41.3282 82.5759 40.5095C81.3918 39.6908 80.3621 39.1041 79.3993 38.7579C78.4362 38.4117 77.5399 38.3036 76.5969 38.4238C75.6537 38.5439 74.6641 38.8903 73.8615 39.4505C73.0588 40.0104 72.4439 40.7824 72.1761 41.7599C71.9961 42.4201 71.9736 43.1717 72.027 43.9231C72.7213 43.1511 73.4572 42.5199 74.4154 42.1187C75.4231 41.6988 76.677 41.5361 77.7552 41.589C78.8335 41.642 79.7358 41.9089 80.4038 42.1776C81.0716 42.4464 81.5052 42.7152 81.8507 43.025C82.1968 43.3325 82.4543 43.6828 82.6891 44.0107C82.9233 44.3366 83.1343 44.64 83.2807 45.0597C83.4274 45.4792 83.5094 46.0169 83.4388 46.6117C83.3688 47.2064 83.1459 47.8602 82.7065 48.3328C82.2668 48.8053 81.611 49.0965 81.0775 49.1434C80.5442 49.1902 80.1342 48.9926 80.0929 48.8643C80.052 48.736 80.3803 48.677 80.6262 48.5548C80.8723 48.4325 81.0365 48.2452 81.0952 47.9009C81.1536 47.5567 81.1068 47.0556 80.8202 46.5363C80.5339 46.0169 80.0073 45.4812 79.3924 45.2246C78.7772 44.9679 78.0729 44.9904 77.4456 45.1818C76.8182 45.3754 76.2672 45.7379 75.8575 46.2613C75.4477 46.7869 75.1796 47.4753 75.2203 48.2879C75.2613 49.0986 75.6121 50.0314 76.1565 50.6852C76.3032 50.8604 76.4642 51.0172 76.6284 51.1557C77.3356 51.6079 78.1768 51.9908 79.1222 52.1945C80.7808 52.555 82.7605 52.3677 84.4593 51.836C86.1581 51.3023 87.5757 50.4245 89.1942 49.2921C90.8126 48.1596 92.6317 46.7747 94.3438 45.63C96.0559 44.4832 97.6611 43.5789 99.079 42.7929C100.497 42.0065 101.727 41.3405 102.784 40.9536C103.841 40.5685 104.723 40.4605 104.991 40.5685C105.258 40.6745 104.911 40.9941 104.838 41.4606C104.765 41.9271 104.966 42.5401 105.301 43.0127C105.636 43.4852 106.104 43.8172 106.739 43.9048C107.375 43.9903 108.177 43.8315 108.732 43.4528C109.287 43.0719 109.595 42.473 109.722 41.8394C109.849 41.2081 109.796 40.5421 109.695 40.0899C109.594 39.6358 109.446 39.3955 109.065 39.0756C108.683 38.7579 108.067 38.3567 107.318 38.0774C106.569 37.7987 105.687 37.6375 104.697 37.6784C103.707 37.717 102.61 37.9574 101.313 38.491C100.015 39.0227 98.5169 39.8496 97.166 40.3281C95.815 40.8069 94.6116 40.9412 93.4344 40.7946C92.2571 40.648 91.1069 40.2223 90.3714 39.7416C89.6357 39.2631 89.3144 38.7295 89.4887 38.6234C89.6623 38.5175 90.3309 38.8374 91.2544 38.9024C92.1773 38.9695 93.3543 38.7845 94.5045 38.2241C95.6551 37.6642 96.7781 36.7333 98.1827 35.8127C98.6041 35.5377 99.0509 35.2626 99.5146 34.9999ZM64.6075 16.0945C63.2579 16.0945 62.1636 17.1843 62.1636 18.5287C62.1636 19.8728 63.2579 20.9626 64.6075 20.9626C65.9571 20.9626 67.0513 19.8728 67.0513 18.5287C67.0513 17.1843 65.9571 16.0945 64.6075 16.0945ZM64.6075 53.9053C63.2579 53.9053 62.1636 52.8157 62.1636 51.4714C62.1636 50.1271 63.2579 49.0375 64.6075 49.0375C65.9571 49.0375 67.0513 50.1271 67.0513 51.4714C67.0513 52.8157 65.9571 53.9053 64.6075 53.9053ZM59.1268 34.9999C59.4374 34.7759 59.7333 34.5355 60.0082 34.277C60.8611 33.4807 61.5154 32.5315 61.9738 31.5027C64.2902 35.3808 64.2902 34.6192 61.9738 38.4973C61.5154 37.4685 60.8611 36.5175 60.0082 35.7209C59.7333 35.4642 59.4374 35.2242 59.1268 34.9999ZM29.7004 34.9999C30.1641 34.7372 30.6106 34.4624 31.032 34.1872C32.4368 33.2667 33.5599 32.3359 34.7104 31.7757C35.8607 31.2158 37.0379 31.0302 37.9606 31.0955C38.8838 31.1627 39.5526 31.4825 39.7263 31.3766C39.9003 31.2706 39.5793 30.737 38.8433 30.2584C38.1078 29.7777 36.9579 29.3521 35.7809 29.2054C34.6036 29.0585 33.3997 29.1931 32.0487 29.6716C30.6978 30.1505 29.1996 30.9773 27.9024 31.5091C26.6049 32.0427 25.5082 32.2829 24.5181 32.3217C23.5284 32.3622 22.6456 32.2016 21.8967 31.9223C21.1475 31.6433 20.5323 31.2442 20.1503 30.9244C19.7688 30.6046 19.6207 30.3642 19.52 29.9101C19.419 29.4579 19.3659 28.7919 19.493 28.1604C19.6197 27.5271 19.9277 26.9284 20.4826 26.5475C21.0378 26.1684 21.8401 26.0097 22.4754 26.0953C23.1107 26.1808 23.5789 26.5149 23.9138 26.9874C24.2488 27.4599 24.4503 28.073 24.3773 28.5394C24.304 29.0057 23.9564 29.3255 24.2239 29.4313C24.4915 29.5395 25.3742 29.4313 26.4309 29.0464C27.4876 28.6595 28.7179 27.9935 30.1358 27.2072C31.5539 26.4211 33.1588 25.5166 34.8709 24.37C36.5829 23.2254 38.4023 21.8403 40.0208 20.7078C41.639 19.5754 43.0568 18.6977 44.7557 18.1641C46.4543 17.6324 48.4341 17.4449 50.0925 17.8056C51.0379 18.009 51.8791 18.3921 52.5863 18.8443C52.7505 18.9828 52.9115 19.1397 53.0585 19.3147C53.6028 19.9686 53.9534 20.9015 53.9944 21.712C54.0354 22.5228 53.7667 23.2133 53.3573 23.7367C52.9475 24.2621 52.3967 24.6246 51.7694 24.8162C51.1418 25.0097 50.4378 25.032 49.8226 24.7754C49.2074 24.5187 48.6811 23.983 48.3947 23.4637C48.1079 22.9443 48.0611 22.4433 48.1198 22.099C48.1785 21.7547 48.3424 21.5675 48.5883 21.4454C48.8346 21.323 49.1627 21.264 49.1217 21.1356C49.0808 21.0074 48.6705 20.8099 48.1372 20.8565C47.604 20.9015 46.9478 21.1948 46.5085 21.6673C46.0688 22.1398 45.8462 22.7934 45.7759 23.3884C45.7053 23.983 45.7875 24.5187 45.934 24.9404C46.0804 25.3601 46.2914 25.6633 46.5256 25.9892C46.7604 26.3172 47.0182 26.6675 47.3643 26.9771C47.7095 27.2846 48.1433 27.5536 48.8114 27.8224C49.4789 28.0911 50.3815 28.3581 51.4596 28.411C52.5377 28.4639 53.7916 28.3009 54.7996 27.8795C55.758 27.4802 56.4934 26.8489 57.1879 26.0768C57.2413 26.8284 57.2186 27.5799 57.0385 28.2399C56.771 29.2175 56.1559 29.9896 55.3532 30.5498C54.5508 31.1097 53.5611 31.4561 52.6181 31.5762C51.675 31.6962 50.7788 31.5883 49.8157 31.2421C48.8526 30.896 47.8229 30.3092 46.6391 29.4905C45.4552 28.6718 44.1175 27.6186 42.8604 26.8997C41.6028 26.1808 40.4261 25.796 39.3022 25.7225C38.1787 25.6491 37.1088 25.8876 36.4399 26.1277C35.771 26.3682 35.5035 26.6086 35.9382 26.7999C36.373 26.9935 37.5104 27.1401 38.8007 27.859C40.0914 28.5781 41.5362 29.8715 42.8134 31.1566C44.0908 32.4417 45.2011 33.7189 46.4453 34.6903C46.5819 34.7982 46.7202 34.9001 46.8603 34.9999C46.7202 35.0999 46.5819 35.2015 46.4453 35.3097C45.2011 36.2811 44.0908 37.558 42.8134 38.8434C41.5362 40.1286 40.0914 41.4219 38.8007 42.1408C37.5104 42.86 36.373 43.0066 35.9382 43.2001C35.5035 43.3915 35.771 43.6317 36.4399 43.8722C37.1088 44.1125 38.1787 44.3508 39.3022 44.2776C40.4261 44.2042 41.6028 43.8192 42.8604 43.1003C44.1175 42.3793 45.4552 41.3282 46.6391 40.5095C47.8229 39.6908 48.8526 39.1041 49.8157 38.7579C50.7788 38.4117 51.675 38.3036 52.6181 38.4238C53.5611 38.5439 54.5508 38.8903 55.3532 39.4505C56.1559 40.0104 56.771 40.7824 57.0385 41.7599C57.2186 42.4201 57.2413 43.1717 57.1879 43.9231C56.4934 43.1511 55.758 42.5199 54.7996 42.1187C53.7916 41.6988 52.5377 41.5361 51.4596 41.589C50.3815 41.642 49.4789 41.9089 48.8114 42.1776C48.1433 42.4464 47.7095 42.7152 47.3643 43.025C47.0182 43.3325 46.7604 43.6828 46.5256 44.0107C46.2914 44.3366 46.0804 44.64 45.934 45.0597C45.7875 45.4792 45.7053 46.0169 45.7759 46.6117C45.8462 47.2064 46.0688 47.8602 46.5085 48.3328C46.9478 48.8053 47.604 49.0965 48.1372 49.1434C48.6705 49.1902 49.0808 48.9926 49.1217 48.8643C49.1627 48.736 48.8346 48.677 48.5883 48.5548C48.3424 48.4325 48.1785 48.2452 48.1198 47.9009C48.0611 47.5567 48.1079 47.0556 48.3947 46.5363C48.6811 46.0169 49.2074 45.4812 49.8226 45.2246C50.4378 44.9679 51.1418 44.9904 51.7694 45.1818C52.3967 45.3754 52.9475 45.7379 53.3573 46.2613C53.7667 46.7869 54.0354 47.4753 53.9944 48.2879C53.9534 49.0986 53.6028 50.0314 53.0585 50.6852C52.9115 50.8604 52.7505 51.0172 52.5863 51.1557C51.8791 51.6079 51.0379 51.9908 50.0925 52.1945C48.4341 52.555 46.4543 52.3677 44.7557 51.836C43.0568 51.3023 41.639 50.4245 40.0208 49.2921C38.4023 48.1596 36.5829 46.7747 34.8709 45.63C33.1588 44.4832 31.5539 43.5789 30.1358 42.7929C28.7179 42.0065 27.4876 41.3405 26.4309 40.9536C25.3742 40.5685 24.4915 40.4605 24.2239 40.5685C23.9564 40.6745 24.304 40.9941 24.3773 41.4606C24.4503 41.9271 24.2488 42.5401 23.9138 43.0127C23.5789 43.4852 23.1107 43.8172 22.4754 43.9048C21.8401 43.9903 21.0378 43.8315 20.4826 43.4528C19.9277 43.0719 19.6197 42.473 19.493 41.8394C19.3659 41.2081 19.419 40.5421 19.52 40.0899C19.6207 39.6358 19.7688 39.3955 20.1503 39.0756C20.5323 38.7579 21.1475 38.3567 21.8967 38.0774C22.6456 37.7987 23.5284 37.6375 24.5181 37.6784C25.5082 37.717 26.6049 37.9574 27.9024 38.491C29.1996 39.0227 30.6978 39.8496 32.0487 40.3281C33.3997 40.8069 34.6036 40.9412 35.7809 40.7946C36.9579 40.648 38.1078 40.2223 38.8433 39.7416C39.5793 39.2631 39.9003 38.7295 39.7263 38.6234C39.5526 38.5175 38.8838 38.8374 37.9606 38.9024C37.0379 38.9695 35.8607 38.7845 34.7104 38.2241C33.5599 37.6642 32.4368 36.7333 31.032 35.8127C30.6106 35.5377 30.1641 35.2626 29.7004 34.9999ZM64.6075 22.5247C66.8237 22.5247 68.6203 20.7365 68.6203 18.5287C68.6203 16.3228 66.8237 14.5324 64.6075 14.5324C62.3913 14.5324 60.5943 16.3228 60.5943 18.5287C60.5943 20.7365 62.3913 22.5247 64.6075 22.5247ZM64.6075 55.4676C66.8237 55.4676 68.6203 53.6773 68.6203 51.4714C68.6203 49.2636 66.8237 47.4753 64.6075 47.4753C62.3913 47.4753 60.5943 49.2636 60.5943 51.4714C60.5943 53.6773 62.3913 55.4676 64.6075 55.4676ZM66.3201 4.03887C66.7237 4.73332 67.2036 5.45247 67.6017 6.1856C68.5106 4.79862 69.8386 3.4237 71.6178 2.38919C73.5308 1.27697 75.9651 0.558069 78.3994 0.238272C80.8337 -0.0815831 83.2683 -0.0020884 85.5421 0.35645C87.816 0.717066 89.9293 1.35648 91.9959 1.89007C94.0625 2.42182 96.0823 2.84752 97.741 3.03493C99.3994 3.22026 100.697 3.16707 101.767 2.95541C102.837 2.74138 103.68 2.36893 104.014 2.35444C104.349 2.34231 104.175 2.68851 103.753 3.29341C103.332 3.90044 102.663 4.76602 101.573 5.51756C100.483 6.27118 98.9713 6.91088 97.0922 7.26936C95.2128 7.62975 92.9656 7.70926 90.5982 7.45655C88.2308 7.20413 85.7428 6.61734 83.5091 6.20407C81.2752 5.79259 79.2954 5.55224 77.5167 5.71124C75.7374 5.8721 74.1592 6.43017 72.9954 7.1775C71.8322 7.92299 71.0829 8.85385 70.6547 9.72779C70.2266 10.5994 70.1198 11.412 70.1865 12.1901C70.2534 12.9701 70.4942 13.7156 70.9957 14.2492C71.4975 14.7809 72.2599 15.1008 72.8685 15.3085C73.4774 15.5141 73.9318 15.6078 74.5139 15.4469C75.0956 15.288 75.8046 14.8746 76.199 14.3695C76.5935 13.8622 76.6739 13.2636 76.5935 12.7564C76.5134 12.2512 76.2728 11.8376 75.992 11.571C75.711 11.3062 75.3898 11.1861 75.089 11.139C74.7878 11.0924 74.5071 11.1188 74.5071 10.9395C74.5071 10.7602 74.7878 10.3732 75.5238 9.99441C76.2593 9.61353 77.4495 9.24079 78.7338 9.09414C80.0179 8.94755 81.3957 9.02891 82.8265 9.39374C84.2578 9.76019 85.7428 10.4141 87.1337 11.2654C88.5247 12.1188 89.8223 13.1697 91.5478 14.4898C93.2734 15.8073 95.4267 17.392 97.2659 18.6366C99.1051 19.8831 100.63 20.7894 102.409 21.488C104.188 22.1867 106.221 22.6794 108.054 22.8587C109.886 23.0401 111.518 22.9056 113.009 22.4534C114.501 22.0014 115.852 21.2272 116.935 20.2292C118.018 19.2292 118.835 18.0051 119.343 16.606C119.851 15.2087 120.052 13.6361 119.985 12.2981C119.918 10.96 119.583 9.8539 119.069 8.98233C118.554 8.10833 117.858 7.46895 116.915 7.0838C115.972 6.69685 114.782 6.56441 113.799 6.62365C112.816 6.68473 112.04 6.9372 111.358 7.28361C110.675 7.62974 110.087 8.06963 109.639 8.68059C109.191 9.29397 108.883 10.08 108.883 10.9252C108.883 11.7726 109.191 12.6769 109.632 13.3102C110.073 13.9418 110.648 14.3021 111.257 14.4898C111.866 14.6749 112.508 14.6893 113.003 14.5956C113.498 14.5019 113.845 14.3021 113.919 14.4427C113.993 14.5814 113.792 15.0621 113.317 15.5814C112.842 16.1005 112.093 16.6589 111.217 16.9521C110.341 17.2454 109.338 17.272 108.295 16.9724C107.251 16.6731 106.168 16.0477 105.432 15.0621C104.696 14.0763 104.308 12.7298 104.221 11.4588C104.134 10.1858 104.349 8.98833 104.763 7.91485C105.178 6.84345 105.793 5.89844 106.616 4.99817C107.438 4.09997 108.468 3.24866 109.565 2.6011C110.662 1.95539 111.826 1.51519 113.203 1.23015C114.581 0.942917 116.173 0.81053 117.725 0.975596C119.277 1.14274 120.789 1.60896 122.147 2.44208C123.505 3.27313 124.709 4.4727 125.531 5.57072C126.353 6.67052 126.794 7.6685 127.168 8.78066C127.542 9.89467 127.85 11.1188 127.957 12.5242C128.064 13.9296 127.97 15.5141 127.696 17.0193C127.422 18.5244 126.967 19.9502 126.546 21.0074C126.124 22.0664 125.737 22.759 125.429 23.2133C125.121 23.6653 124.894 23.8793 124.787 23.7448C124.68 23.6124 124.693 23.1317 124.359 22.6858C124.024 22.2396 123.342 21.8281 122.593 21.6612C121.844 21.4941 121.028 21.5736 120.393 21.9605C119.642 22.4181 115.862 29.9578 115.683 30.6639V30.664C115.599 30.8077 115.525 31.0647 115.37 31.4175C115.049 32.1484 114.381 33.293 113.592 34.173C113.317 34.4786 113.027 34.7535 112.725 34.9999C113.027 35.2465 113.317 35.5193 113.592 35.827C113.784 36.0409 115.872 39.4586 115.872 39.4686L119.29 46.6271C119.363 46.8427 119.461 47.0461 119.579 47.2326L119.58 47.2331L119.58 47.2331C119.791 47.5639 120.068 47.8417 120.393 48.0394C121.028 48.4265 121.844 48.5058 122.593 48.3389C123.342 48.1718 124.024 47.7604 124.359 47.3144C124.693 46.8683 124.68 46.3876 124.787 46.2552C124.894 46.1209 125.121 46.3346 125.429 46.7869C125.737 47.241 126.124 47.9335 126.546 48.9926C126.967 50.0498 127.422 51.4755 127.696 52.9807C127.97 54.4859 128.064 56.0705 127.957 57.4758C127.85 58.8812 127.542 60.1054 127.168 61.2194C126.794 62.3315 126.353 63.3296 125.531 64.4294C124.709 65.5272 123.505 66.7269 122.147 67.558C120.789 68.391 119.277 68.8574 117.725 69.0223C116.173 69.1893 114.581 69.057 113.203 68.7698C111.826 68.4846 110.662 68.0447 109.565 67.3989C108.468 66.7513 107.438 65.8999 106.616 64.9997C105.793 64.1015 105.178 63.1564 104.763 62.0851C104.349 61.0117 104.134 59.8141 104.221 58.541C104.308 57.2701 104.696 55.9238 105.432 54.9381C106.168 53.9522 107.251 53.327 108.295 53.0275C109.338 52.7282 110.341 52.7546 111.217 53.0478C112.093 53.3412 112.842 53.8993 113.317 54.4187C113.792 54.9381 113.993 55.4186 113.919 55.5572C113.845 55.6977 113.498 55.4982 113.003 55.4045C112.508 55.3107 111.866 55.325 111.257 55.5104C110.648 55.6978 110.073 56.0583 109.632 56.6896C109.191 57.3231 108.883 58.2274 108.883 59.0748C108.883 59.92 109.191 60.7062 109.639 61.3192C110.087 61.9302 110.675 62.3702 111.358 62.7165C112.04 63.0627 112.816 63.3153 113.799 63.3764C114.782 63.4355 115.972 63.303 116.915 62.9161C117.858 62.5311 118.554 61.8916 119.069 61.0177C119.583 60.1461 119.918 59.0401 119.985 57.702C120.052 56.3637 119.851 54.7914 119.343 53.3941C118.835 51.9949 118.018 50.7708 116.935 49.7707C115.852 48.7726 114.501 47.9987 113.009 47.5466C111.518 47.0944 109.886 46.9599 108.054 47.1412C106.221 47.3204 104.188 47.8134 102.409 48.512C100.63 49.2106 99.1051 50.117 97.2659 51.3614C95.4267 52.608 93.2734 54.1926 91.5478 55.5104C89.8223 56.8302 88.5247 57.8812 87.1337 58.7346C85.7428 59.586 84.2578 60.2398 82.8265 60.6064C81.3957 60.973 80.0179 61.0524 78.7338 60.9058C77.4495 60.7591 76.2593 60.3864 75.5238 60.0055C74.7878 59.6267 74.5071 59.2397 74.5071 59.0604C74.5071 58.8812 74.7878 58.9077 75.089 58.8608C75.3898 58.814 75.711 58.6939 75.992 58.429C76.2728 58.1622 76.5134 57.7487 76.5935 57.2437C76.6739 56.7365 76.5935 56.1376 76.199 55.6305C75.8046 55.1254 75.0956 54.7119 74.5139 54.5531C73.9318 54.3921 73.4774 54.4859 72.8685 54.6916C72.2599 54.8993 71.4975 55.219 70.9957 55.7507C70.4942 56.2844 70.2534 57.0298 70.1865 57.8098C70.1198 58.5879 70.2266 59.4006 70.6547 60.2724C71.0829 61.1461 71.8322 62.0769 72.9954 62.8224C74.1592 63.5698 75.7374 64.128 77.5167 64.2888C79.2954 64.4477 81.2752 64.2074 83.5091 63.796C85.7428 63.3825 88.2308 62.7959 90.5982 62.5433C92.9656 62.2908 95.2128 62.3703 97.0922 62.7308C98.9713 63.0892 100.483 63.7287 101.573 64.4803C102.663 65.2339 103.332 66.0995 103.753 66.7065C104.175 67.3114 104.349 67.6577 104.014 67.6454C103.68 67.6312 102.837 67.2585 101.767 67.0446C100.697 66.8328 99.3994 66.7799 97.741 66.9651C96.0823 67.1526 94.0625 67.5783 91.9959 68.1098C89.9293 68.6435 87.816 69.283 85.5421 69.6415C83.2683 70.0021 80.8337 70.0815 78.3994 69.7617C75.9651 69.4419 73.5308 68.7229 71.6178 67.6109C69.8386 66.5762 68.5106 65.2013 67.6017 63.8143C67.2036 64.5475 66.7237 65.2665 66.3201 65.961C65.7131 67.0324 65.5097 67.4805 65.1801 68.6597C65.0548 69.1099 64.8541 69.9491 64.6075 70C64.3606 69.9491 64.1602 69.1099 64.0346 68.6597C63.7052 67.4805 63.5019 67.0324 62.8949 65.961C62.4912 65.2665 62.0111 64.5475 61.6132 63.8143C60.7041 65.2013 59.3764 66.5762 57.5969 67.6109C55.6842 68.7229 53.2499 69.4419 50.8156 69.7617C48.381 70.0815 45.9464 70.0021 43.6728 69.6415C41.3987 69.283 39.2854 68.6435 37.219 68.1098C35.1522 67.5783 33.1324 67.1526 31.474 66.9651C29.8153 66.7799 28.5178 66.8328 27.4476 67.0446C26.378 67.2585 25.5352 67.6312 25.2008 67.6454C24.8663 67.6577 25.0403 67.3114 25.4614 66.7065C25.8831 66.0995 26.5517 65.2339 27.6417 64.4803C28.732 63.7287 30.2434 63.0892 32.1228 62.7308C34.0019 62.3703 36.2493 62.2908 38.6165 62.5433C40.9842 62.7959 43.4722 63.3825 45.7058 63.796C47.9397 64.2074 49.9193 64.4477 51.698 64.2888C53.4773 64.128 55.0555 63.5698 56.2193 62.8224C57.383 62.0769 58.132 61.1461 58.56 60.2724C58.9883 59.4006 59.0951 58.5879 59.028 57.8098C58.9613 57.0298 58.7208 56.2844 58.219 55.7507C57.7175 55.219 56.955 54.8993 56.3465 54.6916C55.7379 54.4859 55.2829 54.3921 54.701 54.5531C54.1194 54.7119 53.4101 55.1254 53.0159 55.6305C52.6212 56.1376 52.5408 56.7365 52.6212 57.2437C52.7016 57.7487 52.9419 58.1622 53.223 58.429C53.5039 58.6939 53.8249 58.814 54.1258 58.8608C54.4269 58.9077 54.7076 58.8812 54.7076 59.0604C54.7076 59.2397 54.4269 59.6267 53.6911 60.0055C52.9556 60.3864 51.7649 60.7591 50.4811 60.9058C49.1968 61.0524 47.8192 60.973 46.3882 60.6064C44.9569 60.2398 43.4722 59.586 42.081 58.7346C40.69 57.8812 39.3924 56.8302 37.6669 55.5104C35.9416 54.1926 33.788 52.608 31.9489 51.3614C30.1096 50.117 28.5847 49.2106 26.806 48.512C25.0268 47.8134 22.9935 47.3204 21.1609 47.1412C19.3289 46.9599 17.6969 47.0944 16.2053 47.5466C14.714 47.9987 13.3631 48.7726 12.2797 49.7707C11.1966 50.7708 10.3802 51.9949 9.87183 53.3941C9.36395 54.7914 9.16332 56.3637 9.22989 57.702C9.29709 59.0401 9.63149 60.1461 10.1462 61.0177C10.6612 61.8916 11.3565 62.5311 12.2995 62.9161C13.2428 63.303 14.4333 63.4355 15.4162 63.3764C16.3994 63.3153 17.1753 63.0627 17.8574 62.7165C18.5397 62.3702 19.128 61.9302 19.5761 61.3192C20.0241 60.7062 20.3319 59.92 20.3319 59.0748C20.3319 58.2274 20.0241 57.3231 19.5829 56.6896C19.1414 56.0583 18.5661 55.6978 17.9578 55.5104C17.349 55.325 16.7071 55.3107 16.2122 55.4045C15.7173 55.4982 15.3694 55.6977 15.2959 55.5572C15.2221 55.4186 15.4228 54.9381 15.8976 54.4187C16.3727 53.8993 17.1216 53.3412 17.9977 53.0478C18.8739 52.7546 19.8772 52.7282 20.9201 53.0275C21.9638 53.327 23.0472 53.9522 23.783 54.9381C24.5184 55.9238 24.9063 57.2701 24.9933 58.541C25.0805 59.8141 24.8663 61.0117 24.4515 62.0851C24.0368 63.1564 23.4219 64.1015 22.5991 64.9997C21.7766 65.8999 20.7467 66.7513 19.6495 67.3989C18.5529 68.0447 17.3889 68.4846 16.0115 68.7698C14.6339 69.057 13.0421 69.1893 11.49 69.0223C9.93794 68.8574 8.42574 68.391 7.06765 67.558C5.70985 66.7269 4.50588 65.5272 3.68373 64.4294C2.86153 63.3296 2.42079 62.3315 2.04697 61.2194C1.67263 60.1054 1.3652 58.8812 1.25787 57.4758C1.15107 56.0705 1.24488 54.4859 1.5188 52.9807C1.79294 51.4755 2.24764 50.0498 2.66907 48.9926C3.09043 47.9335 3.4783 47.241 3.78602 46.7869C4.0935 46.3346 4.32137 46.1209 4.42789 46.2552C4.53498 46.3876 4.52177 46.8683 4.85592 47.3144C5.19037 47.7604 5.87272 48.1718 6.62141 48.3389C7.37061 48.5058 8.18672 48.4265 8.82199 48.0394C9.45731 47.6525 9.91226 46.9599 10.0394 46.1616C10.1663 45.3631 9.96564 44.4568 9.43086 43.6787C8.8955 42.8986 8.02598 42.2448 6.97619 41.9739C5.92611 41.6988 4.69548 41.807 3.51848 42.2998C2.34153 42.7929 1.21793 43.6705 0.341803 44.6034C0.223633 44.7296 0.110222 44.8559 -4.43835e-06 44.9843V36.8004C0.171568 36.7293 0.345519 36.662 0.521846 36.5988C2.34096 35.9594 4.42789 35.8799 6.19337 36.1202C7.95885 36.3585 9.40362 36.9186 10.5806 37.6112C11.7576 38.3036 12.6673 39.1306 13.1085 39.3831C13.55 39.6358 13.5233 39.316 13.8445 38.5847C14.1654 37.8516 14.8341 36.7049 15.6232 35.827C15.8981 35.5193 16.1876 35.2465 16.4903 34.9999C16.1876 34.7535 15.8981 34.4786 15.6232 34.173C14.8341 33.293 14.1654 32.1484 13.8445 31.4175C13.5233 30.6841 13.55 30.3642 13.1085 30.6169C12.6673 30.8694 11.7576 31.6962 10.5806 32.3888C9.40362 33.0814 7.95885 33.6395 6.19337 33.8798C4.42789 34.1201 2.34096 34.0406 0.521846 33.4012C0.345519 33.338 0.171568 33.2709 -4.43835e-06 33.1996V25.0157C0.110222 25.1439 0.223633 25.2703 0.341803 25.3966C1.21793 26.3295 2.34153 27.2072 3.51848 27.7002C4.69548 28.193 5.92611 28.3009 6.97619 28.0283C8.02598 27.7553 8.8955 27.1014 9.43086 26.3214C9.96564 25.5433 10.1663 24.6369 10.0394 23.8385C9.91226 23.0401 9.45731 22.3475 8.82199 21.9605C8.18672 21.5736 7.37061 21.4941 6.62141 21.6612C5.87272 21.8281 5.19037 22.2396 4.85592 22.6858C4.52177 23.1317 4.53498 23.6124 4.42789 23.7448C4.32137 23.8793 4.0935 23.6653 3.78602 23.2133C3.4783 22.759 3.09043 22.0664 2.66907 21.0074C2.24764 19.9502 1.79294 18.5244 1.5188 17.0193C1.24488 15.5141 1.15107 13.9296 1.25787 12.5242C1.3652 11.1188 1.67263 9.89467 2.04697 8.78066C2.42079 7.6685 2.86153 6.67052 3.68373 5.57072C4.50588 4.4727 5.70985 3.27313 7.06765 2.44208C8.42574 1.60896 9.93794 1.14274 11.49 0.975596C13.0421 0.81053 14.6339 0.942917 16.0115 1.23015C17.3889 1.51519 18.5529 1.95539 19.6495 2.6011C20.7467 3.24866 21.7766 4.09997 22.5991 4.99817C23.4219 5.89844 24.0368 6.84345 24.4515 7.91485C24.8663 8.98833 25.0805 10.1858 24.9933 11.4588C24.9063 12.7298 24.5184 14.0763 23.783 15.0621C23.0472 16.0477 21.9638 16.6731 20.9201 16.9724C19.8772 17.272 18.8739 17.2454 17.9977 16.9521C17.1216 16.6589 16.3727 16.1005 15.8976 15.5814C15.4228 15.0621 15.2221 14.5814 15.2959 14.4427C15.3694 14.3021 15.7173 14.5019 16.2122 14.5956C16.7071 14.6893 17.349 14.6749 17.9578 14.4898C18.5661 14.3021 19.1414 13.9418 19.5829 13.3102C20.0241 12.6769 20.3319 11.7726 20.3319 10.9252C20.3319 10.08 20.0241 9.29397 19.5761 8.68059C19.128 8.06963 18.5397 7.62974 17.8574 7.28361C17.1753 6.9372 16.3994 6.68473 15.4162 6.62365C14.4333 6.56441 13.2428 6.69685 12.2995 7.0838C11.3565 7.46895 10.6612 8.10833 10.1462 8.98233C9.63149 9.8539 9.29709 10.96 9.22989 12.2981C9.16332 13.6361 9.36395 15.2087 9.87183 16.606C10.3802 18.0051 11.1966 19.2292 12.2797 20.2292C13.3631 21.2272 14.714 22.0014 16.2053 22.4534C17.6969 22.9056 19.3289 23.0401 21.1609 22.8587C22.9935 22.6794 25.0268 22.1867 26.806 21.488C28.5847 20.7894 30.1096 19.8831 31.9489 18.6366C33.788 17.392 35.9416 15.8073 37.6669 14.4898C39.3924 13.1697 40.69 12.1188 42.081 11.2654C43.4722 10.4141 44.9569 9.76019 46.3882 9.39374C47.8192 9.02891 49.1968 8.94755 50.4811 9.09414C51.7649 9.24079 52.9556 9.61353 53.6911 9.99441C54.4269 10.3732 54.7076 10.7602 54.7076 10.9395C54.7076 11.1188 54.4269 11.0924 54.1258 11.139C53.8249 11.1861 53.5039 11.3062 53.223 11.571C52.9419 11.8376 52.7016 12.2512 52.6212 12.7564C52.5408 13.2636 52.6212 13.8622 53.0159 14.3695C53.4101 14.8746 54.1194 15.288 54.701 15.4469C55.2829 15.6078 55.7379 15.5141 56.3465 15.3085C56.955 15.1008 57.7175 14.7809 58.219 14.2492C58.7208 13.7156 58.9613 12.9701 59.028 12.1901C59.0951 11.412 58.9883 10.5994 58.56 9.72779C58.132 8.85385 57.383 7.92299 56.2193 7.1775C55.0555 6.43017 53.4773 5.8721 51.698 5.71124C49.9193 5.55224 47.9397 5.79259 45.7058 6.20407C43.4722 6.61734 40.9842 7.20413 38.6165 7.45655C36.2493 7.70926 34.0019 7.62975 32.1228 7.26936C30.2434 6.91088 28.732 6.27118 27.6417 5.51756C26.5517 4.76602 25.8831 3.90044 25.4614 3.29341C25.0403 2.68851 24.8663 2.34231 25.2008 2.35444C25.5352 2.36893 26.378 2.74138 27.4476 2.95541C28.5178 3.16707 29.8153 3.22026 31.474 3.03493C33.1324 2.84752 35.1522 2.42182 37.219 1.89007C39.2854 1.35648 41.3987 0.717066 43.6728 0.35645C45.9464 -0.0020884 48.381 -0.0815831 50.8156 0.238272C53.2499 0.558069 55.6842 1.27697 57.5969 2.38919C59.3764 3.4237 60.7041 4.79862 61.6132 6.1856C62.0111 5.45247 62.4912 4.73332 62.8949 4.03887C63.5019 2.96753 63.7052 2.51951 64.0346 1.34014C64.1602 0.890036 64.3606 0.051096 64.6075 0C64.8541 0.051096 65.0548 0.890036 65.1801 1.34014C65.5097 2.51951 65.7131 2.96753 66.3201 4.03887Z" fill="#939393"/>
</svg>
