<svg width="147" height="403" viewBox="0 0 147 403" fill="none" xmlns="http://www.w3.org/2000/svg">
<path fill-rule="evenodd" clip-rule="evenodd" d="M85.2773 27.826C94.0177 25.7612 93.2998 38.1647 85.1337 34.8873C84.225 34.523 84.064 34.1807 84.0982 34.5559C84.4749 38.6673 90.218 39.4248 93.3024 37.349C94.8779 36.2892 95.3943 34.4102 95.5589 32.491C96.7874 36.5333 94.7003 41.2638 91.6347 44.3702C90.5757 45.4445 89.3594 46.3585 88.0236 47.3636C83.8354 43.416 80.7951 38.7729 81.2571 33.609C81.5637 30.1822 82.8928 28.9804 85.2773 27.826ZM83.4733 80.5247C81.7912 78.7294 80.0232 72.9937 80.1761 69.7673C80.4326 64.3375 85.2436 60.6048 89.5733 56.9085C93.0076 59.5268 103.134 66.4351 104.534 68.3907C105.157 69.5523 106.14 70.9945 106.774 72.4767C108.991 77.666 107.108 83.5692 102.954 82.473C98.9635 81.4242 100.152 75.8925 103.035 76.843C103.621 77.036 104.013 77.4257 104.312 77.0833C105.016 76.2786 104.831 73.387 101.781 72.808C99.4763 72.3747 96.7797 73.4198 95.7527 75.7286C94.5081 78.5182 96.0898 81.0491 94.153 79.516C88.5349 75.0731 97.9644 72.1052 96.2354 65.7067C95.0837 61.4496 90.3434 61.5989 90.69 62.7679C90.8289 63.2341 93.001 64.8364 90.2647 67.7242C87.717 70.4154 82.1257 72.5276 83.4733 80.5247ZM115.946 127.422C118.906 119.571 117.943 111.071 113.366 104.425C112.031 102.488 110.789 101.348 110.628 100.78C110.467 100.208 111.387 100.208 113.205 101.599C115.022 102.99 117.738 105.772 119.21 108.027C120.683 110.285 120.913 112.018 121.212 111.654C121.511 111.29 121.88 108.828 121.465 106.388C120.6 101.29 116.461 96.6319 116.242 95.7178C115.933 94.4323 121.87 99.8912 123.888 104.989C125.461 108.963 125.3 114.378 123.531 118.518C122.004 122.091 119.262 125.39 115.946 127.422ZM90.3622 151.618C98.2313 154.087 106.654 151.585 112.294 145.765C113.862 153.118 123.551 153.253 123.757 147.532C123.792 146.577 123.4 146.097 123.009 146.188C122.618 146.279 122.227 146.942 121.399 147.167C119.339 147.735 116.73 145.849 117.648 143.577C118.085 142.495 119.374 141.494 120.973 141.253C121.931 141.111 123.001 141.239 124.025 141.556C124.89 142.484 125.936 143.62 126.531 145.186C127.785 148.486 126.678 153.879 124.506 156.927C122.917 159.157 123.364 159.153 120.985 161.736C118.538 164.394 115.273 167.036 112.482 169.773C111.261 165.224 108.563 163.153 108.371 162.127C108.181 161.111 112.198 162.43 116.505 159.516C118.173 158.388 119.369 156.792 119.22 156.348C119.07 155.904 117.575 156.61 115.745 156.964C109.104 158.245 101.328 154.684 96.3243 154.979C94.5875 155.084 93.184 155.653 92.4368 155.438C91.549 155.179 91.4359 153.402 90.3622 151.618ZM105.492 240.016C106.661 242.446 107.277 243.484 107.777 246.453C108.649 251.637 107.339 257.65 105.203 262.623C103.822 265.838 99.8688 272.016 97.5649 275.417C94.1416 271.138 91.7457 267.023 90.7352 263.16C88.1154 253.141 95.9299 250.774 98.3055 255.695C98.9386 257.005 98.8462 258.555 97.9835 259.456C97.1205 260.356 95.487 260.607 95.2451 260.983C94.5908 262.002 103.702 263.705 104.322 255.182C104.668 250.434 102.464 245.958 97.4663 244.516C99.0973 240.022 98.3062 235.012 96.819 230.624C100.101 233.255 103.426 236.366 105.492 240.016ZM88.719 300.971C87.9993 302.073 87.3715 303.051 86.8238 303.958C86.6183 304.674 85.9974 305.468 85.455 306.609C81.85 314.198 86.5665 317.072 88.4463 314.975C89.8107 313.457 88.0118 311.228 88.2393 310.712C88.5404 310.03 91.3718 310.225 92.7724 312.445C94.8201 315.691 92.8599 318.988 93.3017 319.055C93.6005 319.103 94.797 318.052 95.4186 316.525C97.3954 311.667 92.4073 305.857 88.719 300.971ZM96.5937 289.106C95.2201 291.121 93.9115 293.09 92.7157 294.902C97.0925 299.87 100.703 304.011 102.068 309.847C102.905 313.425 102.829 317.077 101.099 320.32C104.629 318.266 109.396 319.638 107.958 320.38C107.383 320.675 105.864 320.859 105.151 321.929C104.438 323 104.529 324.961 105.473 326.17C107.42 328.661 112.704 327.838 114.125 323.251C116.062 316.998 110.3 306.336 106.025 300.456C103.196 296.564 99.8454 292.991 96.5937 289.106ZM89.2204 355.203C88.0368 353.034 86.9966 350.748 86.5162 348.283C85.7082 344.138 87.1943 339.824 90.7731 340.146C93.7152 340.41 94.357 343.389 92.5676 344.795C91.9005 345.319 91.1179 345.184 91.1179 345.595C91.1179 345.973 92.7536 348.748 95.5362 347.827C95.684 347.779 95.8365 347.72 95.9909 347.655C95.9354 347.999 95.8626 348.345 95.7641 348.686C95.3039 350.27 94.2681 351.729 92.7036 352.983C91.7358 353.758 90.5639 354.457 89.2204 355.203ZM85.3832 362.112C86.7694 364.372 88.1809 366.517 89.0929 368.959C92.7227 378.686 83.4314 381.174 81.316 377.145C80.4135 375.423 81.3986 372.546 84.6753 372.789C85.5957 372.859 86.2397 373.178 86.4239 372.837C86.9943 371.777 84.4294 369.447 80.9476 370.281C78.8881 370.777 77.6074 372.896 77.2674 375.308L77.2645 375.265C77.1259 373.316 77.3791 370.878 78.2764 368.793C79.1741 366.705 80.7154 364.972 83.005 363.482C83.7364 363.003 84.544 362.552 85.3832 362.112ZM79.6493 13.5179C78.9631 13.6272 78.243 13.8602 77.4604 14.2353C75.9419 14.9637 75.1593 15.783 74.941 15.6009C74.7227 15.4188 75.0678 14.2353 75.6659 13.1865C76.2841 12.1013 77.0663 11.9155 77.7372 11.6242L79.6493 13.5179ZM87.5395 21.3365C85.9284 21.3001 84.4254 21.566 83.1645 22.0504C80.9189 22.3307 79.1417 23.3977 77.8512 24.4247C76.4477 25.5427 75.6195 26.6133 75.4122 26.3038C75.2049 25.9979 75.6195 24.3082 77.1612 22.5784C78.7024 20.8449 81.3722 19.0678 83.6042 18.1318C83.7765 18.0591 83.9438 17.9935 84.1067 17.9352L87.5395 21.3365ZM94.7014 374.566C95.3285 371.284 95.1017 367.582 94.2706 364.857C93.6891 362.952 92.6157 361.027 91.4388 359.027C93.491 357.838 95.0502 356.593 96.2931 355.24C97.6737 353.735 98.6628 352.093 99.2958 350.281C99.6535 349.258 99.8972 348.179 100 347.15C103.995 348.959 107.112 344.651 106.119 343.769C105.681 343.383 104.531 343.563 103.68 343.062C101.738 341.918 102 338.354 104.761 337.181C108.012 335.801 110.952 338.7 110.904 342.811C110.815 350.591 98.3187 350.763 96.8687 363.693C96.5698 366.361 96.7995 368.458 97.4671 368.046C98.1346 367.638 99.2389 364.719 100.941 362.076C106.598 353.29 118.218 352.856 118.613 342.287C118.737 338.973 117.918 336.485 115.264 334.448C118.441 333.749 121.63 337.835 121.845 336.86C122.72 332.898 119.562 330.901 119.321 330.833C124.437 328.055 127.2 326.548 129.005 322.327C129.573 320.999 129.859 319.571 129.886 318.083C129.932 315.643 129.288 313.045 128.391 310.994C127.494 308.942 126.343 307.438 126.044 307.573C125.745 307.711 126.297 309.489 126.136 311.769C125.975 314.048 125.101 316.829 123.582 318.903C122.864 319.884 122.002 320.706 121.087 321.433C122.206 315.308 120.862 308.472 117.967 302.597C114.206 294.961 108.276 287.835 102.408 281.118C108.124 273.105 114.096 263.769 114.409 253.77C117.3 257.655 117.98 260.563 117.094 265.713C116.587 268.654 115.575 271.868 115.022 275.253C114.1 280.911 114.204 286.992 117.001 291.45C118.06 293.138 119.348 294.505 119.624 293.614C119.901 292.727 119.164 289.58 119.072 286.412C118.785 276.52 124.524 268.244 123.501 256.606C123.442 255.931 123.358 255.273 123.245 254.63C126.386 257.78 127.957 261.317 127.609 267.126C127.018 276.99 122.487 286.455 124.847 296.694C126.084 302.056 129.311 309.247 133.637 311.67C135.225 312.56 136.836 312.834 136.79 311.943C136.704 310.295 131.252 305.302 131.198 295.19C131.127 281.994 140.083 267.401 132.763 256.39C132.121 255.424 131.382 254.556 130.559 253.771C135.913 252.205 138.232 247.369 138.1 242.028C137.991 237.668 136.159 233.898 136.639 230.573C136.765 229.695 137.018 229.239 136.454 229.49C135.891 229.741 134.51 230.699 133.739 232.283C131.732 236.409 133.998 243.04 129.529 245.755C126.175 247.794 121.463 246.574 120.716 243.898C120.124 241.779 122.582 239.311 124.731 240.82C125.283 241.208 125.306 241.664 125.605 241.549C126.613 241.166 127.53 237.74 125.548 235.714C123.257 233.373 117.7 233.124 115.477 237.855C113.078 231.806 114.434 227.747 114.162 225.891C113.942 224.386 111.564 229.421 110.975 232.046C110.608 233.681 110.386 235.664 110.384 237.694C107.878 233.274 104.519 229.995 100.225 227.04C102.952 227.146 106.69 226.58 109.304 225.445C114.076 223.376 115.633 218.715 114.596 214.355C113.163 208.328 105.602 205.91 103.103 210.81C102.551 211.893 102.689 212.851 102.896 213.056C103.183 213.34 104.051 211.56 106.186 212.486C109.995 214.136 106.449 223.663 97.3392 220.1C91.9979 218.01 89.0451 213.612 88.8602 208.166C88.8363 207.467 88.8617 206.832 88.8506 206.241C89.2282 204.621 89.8703 203.11 90.6312 201.931C94.1868 196.418 99.3153 199.751 98.3853 202.683C97.6469 205.012 94.7918 203.703 95.1811 204.404C95.4285 204.848 96.8323 206.045 98.4375 206.119C104.067 206.379 106.732 195.524 96.6022 193.336C89.8291 191.873 84.4525 197.167 82.6525 203.67C77.9074 192.886 76.9069 180.01 84.1985 170.709C87.2745 166.785 91.2907 165.402 95.9221 165.5C100.724 165.603 103.394 167.71 105.632 171.382C106.234 172.369 106.313 173.517 106.392 174.665C106.856 181.421 101.645 185.951 96.5099 183.908C91.4079 181.879 91.8277 175.424 95.5549 175.599C96.5213 175.645 97.5337 176.192 97.9248 176.83C98.3158 177.468 98.0858 178.198 98.3849 178.335C99.1175 178.67 101.482 176.248 100.26 173.684C98.0335 169.012 88.6882 169.659 87.2597 177.537C86.4547 181.976 88.6462 187.494 93.4148 189.516C96.7172 190.916 101.75 191.32 105.008 189.477C106.854 200.593 114.326 203.901 123.01 209.698C126.255 211.864 128.187 213.551 129.338 215.511C130.489 217.472 130.857 219.706 130.557 221.256C130.037 223.954 126.626 225.593 124.345 225.223C122.005 224.843 119.125 222.585 120.824 220.481C121.377 219.797 122.297 219.433 122.389 218.794C122.628 217.136 119.301 216.226 117.373 219.934C114.627 225.215 120.332 232.821 127.957 231.492C136.843 229.943 141.788 217.868 135.275 209.562C130.219 203.114 117.818 199.604 112.978 186.857C112.035 184.372 111.897 182.503 112.702 180.679C113.507 178.855 115.256 177.078 115.877 176.53C116.938 175.596 114.583 178.291 115.187 182.48C116.251 189.862 128.669 197.809 134.078 202.541C136.953 205.056 138.939 208.33 137.644 203.133C136.019 196.605 132.733 194.442 127.957 189.433C123.892 185.168 121.45 181.4 122.35 175.709C124.977 183.385 129.45 184.834 133.733 189.457C135.275 191.121 135.735 192.443 135.965 192.238C136.195 192.033 136.195 190.3 135.712 188.727C134.209 183.835 126.809 179.065 126.094 171.265C125.946 169.657 126.138 168.083 126.568 166.56C127.578 164.884 128.635 162.97 129.572 160.928C128.811 165.815 128.857 169.82 130.372 173.863C130.971 175.458 132.029 177.943 133.168 179.63C134.307 181.317 135.527 182.206 135.826 182.138C136.125 182.069 135.503 181.043 135.089 179.288C133.042 170.611 137.613 161.11 137.206 150.929C137.005 145.907 134.873 141.796 130.407 138.835C132.388 137.808 133.896 136.53 134.905 135.394C136.009 134.152 136.516 133.081 136.527 132.75C136.539 132.419 136.056 132.83 134.893 133.001C132.975 133.282 129.827 132.91 127.462 132.768C131.154 130.478 134.5 127.67 136.537 123.507C138.332 119.837 139.16 115.048 139.068 110.467C138.926 103.376 136.498 97.2182 137.711 92.138C138.01 90.8853 138.378 90.248 137.941 90.5211C137.503 90.7943 136.261 91.9778 135.364 94.0535C131.624 102.699 136.99 111.738 132.234 122.138C129.764 127.539 124.298 131.18 118.671 132.076C123.006 129.272 126.462 124.837 128.111 120.274C129.389 116.734 129.841 113.238 129.841 109.578C129.841 101.461 125.201 98.4272 121.672 92.8445C116.525 84.7017 125.175 82.0324 128.667 84.3193C131.207 85.9836 130.968 89.7637 127.218 90.3172C125.975 90.4993 124.871 90.0877 125.101 90.5211C125.331 90.9545 126.896 92.2291 128.759 92.3893C132.657 92.7243 136.534 88.8241 135.34 83.886C134.193 79.1445 129.24 75.9762 123.996 76.843C122.7 77.0579 121.391 77.5095 120.084 78.0848C122.524 73.7803 122.75 68.5363 120.499 64.0097C117.281 57.5385 109.878 53.2777 106.532 49.2136C104.898 47.2325 104.254 45.2696 103.771 44.6542C102.796 43.4124 102.136 48.2413 104.829 52.8626C108.821 59.7125 114.792 63.1722 112.585 73.4708C112.266 68.7475 108.266 63.9879 104.612 60.6812C101.687 58.0337 97.7711 55.3462 94.2897 52.6404C98.994 47.8662 102.112 41.7518 101.821 35.4845L121.438 54.9201C121.682 61.3185 123.937 67.2071 127.595 71.985C131.157 76.6391 136.046 80.237 141.699 82.2217V320.777C136.046 322.763 131.157 326.359 127.595 331.013C123.937 335.792 121.682 341.681 121.438 348.077L94.7014 374.566ZM61.7228 27.826C52.982 25.7612 53.6999 38.1647 61.8657 34.8873C62.7748 34.523 62.9358 34.1807 62.9016 34.5559C62.5248 38.6673 56.7813 39.4248 53.6971 37.349C52.1219 36.2892 51.6054 34.4102 51.4408 32.491C50.2127 36.5333 52.2995 41.2638 55.3651 44.3702C56.4237 45.4445 57.6404 46.3585 58.9762 47.3636C63.1648 43.416 66.2047 38.7729 65.743 33.609C65.4361 30.1822 64.1069 28.9804 61.7228 27.826ZM63.5265 80.5247C65.2085 78.7294 66.9766 72.9937 66.8237 69.7673C66.5667 64.3375 61.7562 60.6048 57.4265 56.9085C53.9922 59.5268 43.8653 66.4351 42.4663 68.3907C41.8433 69.5523 40.8592 70.9945 40.2255 72.4767C38.0083 77.666 39.8921 83.5692 44.0454 82.473C48.0366 81.4242 46.8475 75.8925 43.965 76.843C43.3783 77.036 42.9872 77.4257 42.6879 77.0833C41.9836 76.2786 42.1682 73.387 45.2188 72.808C47.5231 72.3747 50.2201 73.4198 51.2475 75.7286C52.4921 78.5182 50.9104 81.0491 52.8464 79.516C58.4645 75.0731 49.0353 72.1052 50.7641 65.7067C51.9157 61.4496 56.6564 61.5989 56.3098 62.7679C56.1708 63.2341 53.9988 64.8364 56.7351 67.7242C59.2828 70.4154 64.874 72.5276 63.5265 80.5247ZM31.0537 127.422C28.0939 119.571 29.0565 111.071 33.6341 104.425C34.9684 102.488 36.2112 101.348 36.3718 100.78C36.5328 100.208 35.6124 100.208 33.7951 101.599C31.977 102.99 29.2621 105.772 27.7895 108.027C26.317 110.285 26.0865 112.018 25.7877 111.654C25.4885 111.29 25.1205 108.828 25.5344 106.388C26.4004 101.29 30.5387 96.6319 30.7577 95.7178C31.0669 94.4323 25.1297 99.8912 23.1121 104.989C21.5388 108.963 21.6995 114.378 23.469 118.518C24.9963 122.091 27.7381 125.39 31.0537 127.422ZM56.6377 151.618C48.7681 154.087 40.3461 151.585 34.7055 145.765C33.1375 153.118 23.4492 153.253 23.2429 147.532C23.2083 146.577 23.5994 146.097 23.9906 146.188C24.3817 146.279 24.7728 146.942 25.6013 147.167C27.6605 147.735 30.2696 145.849 29.3518 143.577C28.9147 142.495 27.6263 141.494 26.027 141.253C25.0683 141.111 23.9983 141.239 22.975 141.556C22.1097 142.484 21.0643 143.62 20.4688 145.186C19.2146 148.486 20.3221 153.879 22.4938 156.927C24.0828 159.157 23.6359 159.153 26.0145 161.736C28.4622 164.394 31.7267 167.036 34.5174 169.773C35.7389 165.224 38.4369 163.153 38.6284 162.127C38.8184 161.111 34.8019 162.43 30.4949 159.516C28.8269 158.388 27.6304 156.792 27.7796 156.348C27.9292 155.904 29.4249 156.61 31.2539 156.964C37.8958 158.245 45.6716 154.684 50.6755 154.979C52.4123 155.084 53.8157 155.653 54.563 155.438C55.4507 155.179 55.564 153.402 56.6377 151.618ZM41.5084 240.016C40.3384 242.446 39.7227 243.484 39.2228 246.453C38.3505 251.637 39.661 257.65 41.7973 262.623C43.1775 265.838 47.1305 272.016 49.4353 275.417C52.8582 271.138 55.2541 267.023 56.2646 263.16C58.8846 253.141 51.0699 250.774 48.6942 255.695C48.0613 257.005 48.1535 258.555 49.0162 259.456C49.8793 260.356 51.5132 260.607 51.7547 260.983C52.4094 262.002 43.2977 263.705 42.677 255.182C42.3314 250.434 44.5358 245.958 49.5334 244.516C47.9025 240.022 48.6935 235.012 50.1811 230.624C46.899 233.255 43.5742 236.366 41.5084 240.016ZM58.2807 300.971C59.0001 302.073 59.6283 303.051 60.176 303.958C60.3814 304.674 61.0027 305.468 61.5449 306.609C65.1497 314.198 60.433 317.072 58.5535 314.975C57.189 313.457 58.9883 311.228 58.7604 310.712C58.4594 310.03 55.6279 310.225 54.2274 312.445C52.1796 315.691 54.1403 318.988 53.6981 319.055C53.3992 319.103 52.2024 318.052 51.5812 316.525C49.6044 311.667 54.5924 305.857 58.2807 300.971ZM50.4064 289.106C51.7797 291.121 53.0883 293.09 54.2836 294.902C49.9068 299.87 46.2972 304.011 44.9317 309.847C44.0943 313.425 44.1704 317.077 45.9002 320.32C42.37 318.266 37.6039 319.638 39.0415 320.38C39.6172 320.675 41.1357 320.859 41.8488 321.929C42.5626 323 42.4703 324.961 41.5268 326.17C39.5804 328.661 34.2958 327.838 32.8754 323.251C30.9378 316.998 36.6997 306.336 40.975 300.456C43.8035 296.564 47.1545 292.991 50.4064 289.106ZM57.7797 355.203C58.9633 353.034 60.0029 350.748 60.4837 348.283C61.2912 344.138 59.8055 339.824 56.2271 340.146C53.2846 340.41 52.6428 343.389 54.4321 344.795C55.0994 345.319 55.8819 345.184 55.8819 345.595C55.8819 345.973 54.2462 348.748 51.4639 347.827C51.3158 347.779 51.1629 347.72 51.0089 347.655C51.0648 347.999 51.1368 348.345 51.2357 348.686C51.6959 350.27 52.7314 351.729 54.2961 352.983C55.2644 353.758 56.4359 354.457 57.7797 355.203ZM61.6169 362.112C60.2308 364.372 58.8189 366.517 57.9066 368.959C54.277 378.686 63.5681 381.174 65.6839 377.145C66.5862 375.423 65.6011 372.546 62.3245 372.789C61.4041 372.859 60.7597 373.178 60.5759 372.837C60.0054 371.777 62.5705 369.447 66.0518 370.281C68.1121 370.777 69.3927 372.896 69.732 375.308L69.7354 375.265C69.8735 373.316 69.6206 370.878 68.723 368.793C67.8257 366.705 66.2837 364.972 63.9948 363.482C63.2633 363.003 62.4553 362.552 61.6169 362.112ZM67.3501 13.5179C68.0367 13.6272 68.7568 13.8602 69.5394 14.2353C71.0575 14.9637 71.8404 15.783 72.0588 15.6009C72.2775 15.4188 71.9323 14.2353 71.3339 13.1865C70.7156 12.1013 69.9334 11.9155 69.2626 11.6242L67.3501 13.5179ZM59.4603 21.3365C61.0714 21.3001 62.5745 21.566 63.8356 22.0504C66.0808 22.3307 67.8581 23.3977 69.1487 24.4247C70.5521 25.5427 71.3802 26.6133 71.5875 26.3038C71.7949 25.9979 71.3802 24.3082 69.8389 22.5784C68.297 20.8449 65.628 19.0678 63.3956 18.1318C63.2232 18.0591 63.0564 17.9935 62.8928 17.9352L59.4603 21.3365ZM52.298 374.566C51.6709 371.284 51.8981 367.582 52.7292 364.857C53.3107 362.952 54.384 361.027 55.561 359.027C53.5088 357.838 51.9495 356.593 50.7064 355.24C49.3261 353.735 48.3369 352.093 47.7036 350.281C47.3459 349.258 47.1026 348.179 46.9997 347.15C43.0052 348.959 39.8877 344.651 40.8809 343.769C41.3184 343.383 42.4689 343.563 43.3202 343.062C45.2614 341.918 45 338.354 42.2384 337.181C38.9879 335.801 36.0476 338.7 36.0954 342.811C36.1851 350.591 48.6813 350.763 50.1307 363.693C50.43 366.361 50.2002 368.458 49.5327 368.046C48.8651 367.638 47.761 364.719 46.0583 362.076C40.4016 353.29 28.782 352.856 28.3868 342.287C28.2633 338.973 29.0823 336.485 31.7355 334.448C28.5589 333.749 25.3697 337.835 25.1544 336.86C24.2799 332.898 27.4378 330.901 27.6789 330.833C22.5629 328.055 19.7994 326.548 17.9942 322.327C17.4267 320.999 17.1414 319.571 17.1135 318.083C17.0676 315.643 17.7116 313.045 18.6085 310.994C19.5061 308.942 20.657 307.438 20.9562 307.573C21.255 307.711 20.7029 309.489 20.8636 311.769C21.0249 314.048 21.8994 316.829 23.4179 318.903C24.1354 319.884 24.9974 320.706 25.913 321.433C24.7937 315.308 26.138 308.472 29.0327 302.597C32.7941 294.961 38.724 287.835 44.5913 281.118C38.8758 273.105 32.9037 263.769 32.5913 253.77C29.6995 257.655 29.0198 260.563 29.9061 265.713C30.4126 268.654 31.4249 271.868 31.977 275.253C32.9 280.911 32.796 286.992 29.9984 291.45C28.9401 293.138 27.6513 294.505 27.3756 293.614C27.0992 292.727 27.8355 289.58 27.9274 286.412C28.2148 276.52 22.4762 268.244 23.498 256.606C23.5576 255.931 23.6421 255.273 23.755 254.63C20.6133 257.78 19.0429 261.317 19.3911 267.126C19.9821 276.99 24.5129 286.455 22.1523 296.694C20.9157 302.056 17.6884 309.247 13.3627 311.67C11.7751 312.56 10.1641 312.834 10.2103 311.943C10.2956 310.295 15.7476 305.302 15.802 295.19C15.8725 281.994 6.91642 267.401 14.2368 256.39C14.879 255.424 15.6182 254.556 16.4404 253.771C11.0874 252.205 8.76721 247.369 8.90024 242.028C9.00835 237.668 10.8407 233.898 10.361 230.573C10.2342 229.695 9.98169 229.239 10.5455 229.49C11.1094 229.741 12.4897 230.699 13.2605 232.283C15.2675 236.409 13.0021 243.04 17.4712 245.755C20.8246 247.794 25.5363 246.574 26.2839 243.898C26.8757 241.779 24.4181 239.311 22.2688 240.82C21.7167 241.208 21.6932 241.664 21.3943 241.549C20.3865 241.166 19.4693 237.74 21.4517 235.714C23.7425 233.373 29.3003 233.124 31.5231 237.855C33.9219 231.806 32.5663 227.747 32.8375 225.891C33.0581 224.386 35.4356 229.421 36.0248 232.046C36.3916 233.681 36.6137 235.664 36.6158 237.694C39.1213 233.274 42.481 229.995 46.7751 227.04C44.048 227.146 40.3104 226.58 37.6954 225.445C32.9239 223.376 31.3665 218.715 32.4034 214.355C33.8369 208.328 41.3978 205.91 43.8966 210.81C44.449 211.893 44.3108 212.851 44.1035 213.056C43.8165 213.34 42.9486 211.56 40.8137 212.486C37.0048 214.136 40.5508 223.663 49.6606 220.1C55.0019 218.01 57.9547 213.612 58.1396 208.166C58.1635 207.467 58.1385 206.832 58.1496 206.241C57.7717 204.621 57.1299 203.11 56.3686 201.931C52.813 196.418 47.6845 199.751 48.6141 202.683C49.3529 205.012 52.2083 203.703 51.8187 204.404C51.5712 204.848 50.1675 206.045 48.5627 206.119C42.932 206.379 40.2678 195.524 50.3973 193.336C57.1707 191.873 62.5469 197.167 64.3473 203.67C69.0924 192.886 70.093 180.01 62.8016 170.709C59.7254 166.785 55.7095 165.402 51.0773 165.5C46.2755 165.603 43.6062 167.71 41.3676 171.382C40.7659 172.369 40.6857 173.517 40.6074 174.665C40.144 181.421 45.3544 185.951 50.4902 183.908C55.5919 181.879 55.1721 175.424 51.4448 175.599C50.4784 175.645 49.4662 176.192 49.0751 176.83C48.6839 177.468 48.9141 178.198 48.6152 178.335C47.8826 178.67 45.5179 176.248 46.7398 173.684C48.9662 169.012 58.3116 169.659 59.74 177.537C60.545 181.976 58.3535 187.494 53.5845 189.516C50.2825 190.916 45.2496 191.32 41.9921 189.477C40.1457 200.593 32.6739 203.901 23.9898 209.698C20.7452 211.864 18.8121 213.551 17.6619 215.511C16.5114 217.472 16.1431 219.706 16.4423 221.256C16.9632 223.954 20.374 225.593 22.6548 225.223C24.9941 224.843 27.8744 222.585 26.1755 220.481C25.623 219.797 24.703 219.433 24.6111 218.794C24.3718 217.136 27.6987 216.226 29.6267 219.934C32.3729 225.215 26.6677 232.821 19.0422 231.492C10.1563 229.943 5.21194 217.868 11.7251 209.562C16.7808 203.114 29.1819 199.604 34.0219 186.857C34.9651 184.372 35.1033 182.503 34.2979 180.679C33.4925 178.855 31.7436 177.078 31.1224 176.53C30.0619 175.596 32.4166 178.291 31.8127 182.48C30.7482 189.862 18.3306 197.809 12.9216 202.541C10.0464 205.056 8.06107 208.33 9.35535 203.133C10.9811 196.605 14.267 194.442 19.0422 189.433C23.108 185.168 25.5495 181.4 24.6493 175.709C22.0233 183.385 17.5495 184.834 13.2667 189.457C11.7251 191.121 11.2649 192.443 11.0344 192.238C10.8047 192.033 10.8047 190.3 11.2877 188.727C12.7907 183.835 20.1905 179.065 20.9058 171.265C21.0532 169.657 20.8621 168.083 20.4316 166.56C19.4219 164.884 18.3648 162.97 17.4274 160.928C18.189 165.815 18.1427 169.82 16.6275 173.863C16.0291 175.458 14.9709 177.943 13.8317 179.63C12.693 181.317 11.4733 182.206 11.1745 182.138C10.8753 182.069 11.4965 181.043 11.9104 179.288C13.9582 170.611 9.38655 161.11 9.79352 150.929C9.99418 145.907 12.1272 141.796 16.593 138.835C14.6121 137.808 13.1036 136.53 12.0946 135.394C10.99 134.152 10.4838 133.081 10.4724 132.75C10.4606 132.419 10.9444 132.83 12.1063 133.001C14.0251 133.282 17.173 132.91 19.538 132.768C15.8457 130.478 12.4996 127.67 10.4628 123.507C8.66798 119.837 7.83976 115.048 7.93167 110.467C8.07397 103.376 10.5014 97.2182 9.28915 92.138C8.98997 90.8853 8.62202 90.248 9.05946 90.5211C9.49651 90.7943 10.7386 91.9778 11.6362 94.0535C15.3759 102.699 10.01 111.738 14.7658 122.138C17.2359 127.539 22.7018 131.18 28.3291 132.076C23.9935 129.272 20.5379 124.837 18.8889 120.274C17.6105 116.734 17.1591 113.238 17.1591 109.578C17.1591 101.461 21.799 98.4272 25.3271 92.8445C30.4743 84.7017 21.8248 82.0324 18.3324 84.3193C15.7928 85.9836 16.0317 89.7637 19.7817 90.3172C21.0246 90.4993 22.1292 90.0877 21.8991 90.5211C21.6693 90.9545 20.1045 92.2291 18.2405 92.3893C14.3434 92.7243 10.4658 88.8241 11.6597 83.886C12.8062 79.1445 17.7597 75.9762 23.0033 76.843C24.3001 77.0579 25.6083 77.5095 26.9162 78.0848C24.4762 73.7803 24.2497 68.5363 26.5008 64.0097C29.7189 57.5385 37.1209 53.2777 40.4678 49.2136C42.1017 47.2325 42.7461 45.2696 43.2286 44.6542C44.2038 43.4124 44.8636 48.2413 42.1704 52.8626C38.1792 59.7125 32.2075 63.1722 34.4148 73.4708C34.7338 68.7475 38.7342 63.9879 42.388 60.6812C45.3136 58.0337 49.2287 55.3462 52.7101 52.6404C48.0057 47.8662 44.8879 41.7518 45.179 35.4845L25.5613 54.9201C25.3179 61.3185 23.0628 67.2071 19.405 71.985C15.8431 76.6391 10.954 80.237 5.30095 82.2217V320.777C10.954 322.763 15.8431 326.359 19.405 331.013C23.0628 335.792 25.3179 341.681 25.5613 348.077L52.298 374.566ZM73.4997 403L125.93 351.056L126.697 349.199C126.703 343.552 128.602 338.348 131.798 334.172C135.069 329.901 139.704 326.702 145.064 325.214L147 324.677V78.3215L145.064 77.7825C139.704 76.2931 135.069 73.0993 131.798 68.8276C128.602 64.6507 126.703 59.4467 126.697 53.7985L125.93 51.9448L73.4997 0L21.0694 51.9448L20.303 53.7985C20.2967 59.4467 18.3971 64.6507 15.2014 68.8276C11.931 73.0993 7.29613 76.2931 1.93608 77.7825L0 78.3215V324.677L1.93608 325.214C7.29613 326.702 11.931 329.901 15.2014 334.172C18.3971 338.348 20.2967 343.552 20.303 349.199L21.0694 351.056L73.4997 403ZM73.675 46.1728C74.2514 44.2537 74.8065 40.794 76.0706 37.5274C76.6014 42.4947 79.2648 47.3782 83.1608 51.3876C79.3229 55.0585 75.4196 59.7671 73.5222 64.8983V78.6055C74.834 82.4111 77.1921 85.8561 80.4319 88.3908C71.7287 92.7098 72.5576 105.758 78.5521 107.153C81.4858 107.834 83.3531 105.485 83.2689 104.815C83.2131 104.37 80.5778 104.797 79.8633 101.406C78.7672 96.2022 85.2219 93.3434 89.1021 98.0448C91.9964 101.552 90.7661 106.031 87.7788 109.396C82.6356 115.19 75.3644 117.306 73.9845 125.135C73.6048 127.291 73.5585 129.891 74.0651 131.963C74.5716 134.039 75.6298 135.587 76.0324 135.747C76.6639 135.998 75.478 132.135 80.082 127.393C81.8424 125.58 84.1662 124.076 86.5705 121.752C88.1379 120.237 89.739 118.373 91.1484 116.472C94.2868 123.977 103.581 121.84 104.691 116.144C104.944 114.844 104.622 113.886 104.185 113.795C103.405 113.635 102.365 116.191 100.02 115.528C97.5528 114.829 95.9615 111.599 97.6502 109.283C100.256 105.707 108.417 105.419 110.443 115.94C112.604 127.153 102.101 138.864 93.0944 136.501C88.2356 135.226 88.075 130.918 90.0343 129.276C91.0925 128.384 92.7951 128.384 93.9688 128.864C95.1421 129.341 95.7865 130.299 96.0166 130.048C96.6621 129.345 94.7664 125.044 90.057 125.215C83.4207 125.459 81.5736 136.945 88.0093 141.173C90.1258 142.564 93.0712 143.202 95.9938 143.132C101.229 143.012 105.722 140.47 109.701 136.647C109.793 136.709 109.889 136.77 109.99 136.829C108.842 138.711 108.664 141.526 104.547 144.56C100.636 147.444 96.271 148.289 91.7192 147.08C82.4977 144.633 81.4817 139.036 81.1116 140.332C80.6051 142.109 81.86 145.292 83.3516 147.102C76.5727 146.049 73.3791 152.306 74.1654 155.893C74.8201 158.874 79.098 159.425 79.4347 158.502C79.5791 158.107 79.2597 157.404 79.0965 156.643C81.0811 154.083 84.7095 154.433 84.7969 157.579C84.8943 161.1 80.859 163.384 78.204 167.153C76.5936 169.439 74.8495 172.763 73.5222 176.082V202.585L73.5909 202.795C75.3509 208.153 78.3768 214.205 81.3667 219.625C79.5799 219.518 78.1349 219.97 76.8844 220.777C75.5615 221.632 74.4573 222.886 73.8702 224.47C73.7203 224.876 73.6041 225.303 73.5222 225.737V228.743C73.5666 228.95 73.621 229.149 73.6865 229.337C74.158 230.705 75.17 231.526 76.39 231.867C77.6093 232.209 79.0362 232.073 79.8412 231.811C80.6466 231.548 80.8307 231.161 80.7385 230.967C80.6466 230.773 80.2782 230.773 79.9217 230.637C79.5652 230.5 79.22 230.226 79.0131 229.702C78.8057 229.178 78.7366 228.403 78.9899 227.776C79.2432 227.149 79.8181 226.67 80.7616 226.545C81.7048 226.419 83.0163 226.647 84.2361 227.388C85.4557 228.129 86.583 229.383 87.3888 230.431C87.6578 230.782 87.8909 231.11 88.1074 231.419C89.9787 235.035 91.3476 238.902 90.1338 242.073C88.3959 246.613 83.2454 247.034 81.3325 243.304C80.5962 241.867 80.8731 240.249 81.678 239.348C82.4834 238.448 83.8177 238.265 83.5417 237.753C82.9671 236.686 77.4776 234.971 76.329 240.488C75.4082 244.91 78.2481 249.135 82.5371 251.067C81.9629 251.572 81.3693 252.112 80.762 252.702C78.1617 255.233 75.3086 258.698 73.6059 263.052L73.5222 263.27V304.865C73.9213 304.15 74.3518 303.022 74.8792 301.949C75.7309 300.216 76.8351 298.619 77.4564 296.705C78.0775 294.789 78.2158 292.555 77.8246 290.07C77.4332 287.587 76.5131 284.851 76.007 281.751C75.8015 280.491 75.664 279.172 75.6185 277.806C75.7504 274.205 76.498 270.549 77.4946 267.452C78.6682 263.804 80.1864 260.932 82.6484 258.333C82.9517 258.013 83.2693 257.697 83.5968 257.385C82.9256 262.741 83.5328 268.16 86.2136 273.738C87.6541 276.735 89.7409 280.074 92.1015 283.344L88.0324 289.458C84.0985 284.606 82.5279 281.12 81.4285 276.906C80.8991 274.877 80.8531 274.331 80.5771 275.288C79.2535 279.877 79.5891 285.863 82.3143 291.278C82.9403 292.524 83.7104 293.814 84.5532 295.108C81.7887 299.799 78.2382 306.001 78.0254 310.419C77.8861 313.31 77.6501 316.235 79.0355 319.238C81.0299 323.563 86.0813 326.457 90.9249 326.592C88.5286 328.086 85.6971 327.965 83.0509 327.542C81.2465 327.252 77.9809 324.429 77.7589 324.885C77.6096 325.192 78.2081 326.536 79.0251 327.838C81.1373 331.197 84.0655 333.203 88.2948 334.555C84.6404 335.057 80.7013 337.646 77.4957 336.477C74.3944 335.344 77.1119 331.214 79.3707 332.955C79.6813 333.192 79.7964 333.513 79.8426 333.217C80.0463 331.904 79.2222 329.979 77.2079 329.636C75.7321 329.385 74.4558 329.833 73.5222 330.681V338.483C74.5274 339.526 76.0294 340.388 78.1283 340.864L78.1772 340.875C77.2164 342.05 76.4779 343.293 76.022 344.516C75.2854 346.485 75.2854 348.401 75.5041 349.917C75.7229 351.433 76.1595 352.549 76.7579 353.563C77.356 354.581 78.1154 355.491 78.2764 355.229C78.4378 354.967 78.0004 353.53 78.0467 351.822C78.0926 350.112 78.6216 348.128 79.8412 346.178C80.3169 345.417 80.8972 344.665 81.5354 343.961C80.8609 346.953 80.9171 350.188 81.4538 352.98C81.8519 355.051 82.5363 356.852 83.3508 358.508C81.8082 359.444 80.3015 360.442 79.0818 361.428C77.0112 363.104 75.7684 364.747 74.6984 366.821C74.2801 367.632 73.8875 368.511 73.5222 369.444V392.498C75.6846 388.303 77.8868 384.237 78.0808 383.631C78.4745 382.411 78.6289 382.149 78.844 381.653C79.1487 382.014 79.4965 382.338 79.889 382.614C81.5108 383.755 83.456 384.065 85.3822 383.8L73.4997 395.572L61.618 383.8C63.5438 384.065 65.489 383.755 67.1104 382.614C67.5034 382.338 67.8511 382.014 68.1558 381.653C68.3708 382.149 68.5256 382.411 68.9186 383.631C69.113 384.237 71.3152 388.303 73.478 392.498V369.444C73.1126 368.511 72.7201 367.632 72.301 366.821C71.2313 364.747 69.989 363.104 67.918 361.428C66.6984 360.442 65.1917 359.444 63.6492 358.508C64.4635 356.852 65.1476 355.051 65.546 352.98C66.0827 350.188 66.1389 346.953 65.4644 343.961C66.1025 344.665 66.6829 345.417 67.1582 346.178C68.3782 348.128 68.9075 350.112 68.9531 351.822C68.9994 353.53 68.562 354.967 68.723 355.229C68.8843 355.491 69.6438 354.581 70.2418 353.563C70.8402 352.549 71.2773 351.433 71.4957 349.917C71.7143 348.401 71.7143 346.485 70.9781 344.516C70.5223 343.293 69.7835 342.05 68.8226 340.875L68.8715 340.864C70.97 340.388 72.4723 339.526 73.478 338.483V330.681C72.544 329.833 71.2678 329.385 69.7919 329.636C67.7772 329.979 66.9535 331.904 67.1574 333.217C67.2034 333.513 67.3184 333.192 67.6287 332.955C69.8879 331.214 72.6058 335.344 69.5044 336.477C66.2984 337.646 62.3594 335.057 58.7053 334.555C62.9343 333.203 65.8625 331.197 67.975 327.838C68.7921 326.536 69.3901 325.192 69.2406 324.885C69.0189 324.429 65.7533 327.252 63.9488 327.542C61.3026 327.965 58.4711 328.086 56.0749 326.592C60.9185 326.457 65.9702 323.563 67.9643 319.238C69.3501 316.235 69.1138 313.31 68.9744 310.419C68.7612 306.001 65.2111 299.799 62.4465 295.108C63.2894 293.814 64.0595 292.524 64.6854 291.278C67.4103 285.863 67.7464 279.877 66.4227 275.288C66.1466 274.331 66.1007 274.877 65.5714 276.906C64.4723 281.12 62.9012 284.606 58.9674 289.458L54.8986 283.344C57.2589 280.074 59.3456 276.735 60.7858 273.738C63.467 268.16 64.0746 262.741 63.4026 257.385C63.7301 257.697 64.0481 258.013 64.351 258.333C66.8134 260.932 68.3319 263.804 69.5052 267.452C70.5017 270.549 71.2494 274.205 71.3817 277.806C71.3357 279.172 71.1987 280.491 70.9928 281.751C70.4866 284.851 69.5662 287.587 69.1751 290.07C68.784 292.555 68.9222 294.789 69.5435 296.705C70.1646 298.619 71.2692 300.216 72.1205 301.949C72.648 303.022 73.0788 304.15 73.478 304.865V263.27L73.3938 263.052C71.6912 258.698 68.838 255.233 66.2378 252.702C65.6306 252.112 65.0369 251.572 64.4631 251.067C68.752 249.135 71.5912 244.91 70.6708 240.488C69.5217 234.971 64.0323 236.686 63.4582 237.753C63.1817 238.265 64.5164 238.448 65.3218 239.348C66.1271 240.249 66.4031 241.867 65.6669 243.304C63.7544 247.034 58.6038 246.613 56.8659 242.073C55.6522 238.902 57.021 235.035 58.8924 231.419C59.1089 231.11 59.3419 230.782 59.611 230.431C60.4164 229.383 61.5442 228.129 62.7638 227.388C63.983 226.647 65.2945 226.419 66.2381 226.545C67.1817 226.67 67.757 227.149 68.0099 227.776C68.2628 228.403 68.194 229.178 67.9867 229.702C67.7797 230.226 67.4346 230.5 67.0781 230.637C66.7215 230.773 66.3532 230.773 66.2613 230.967C66.169 231.161 66.3532 231.548 67.1582 231.811C67.9636 232.073 69.3905 232.209 70.6102 231.867C71.8294 231.526 72.8421 230.705 73.3137 229.337C73.3787 229.149 73.4332 228.95 73.478 228.743V225.737C73.3957 225.303 73.2795 224.876 73.1295 224.47C72.5426 222.886 71.4383 221.632 70.1154 220.777C68.8649 219.97 67.4195 219.518 65.6331 219.625C68.623 214.205 71.6493 208.153 73.4089 202.795L73.478 202.585V176.082C72.1503 172.763 70.4061 169.439 68.7958 167.153C66.1404 163.384 62.1054 161.1 62.2032 157.579C62.2903 154.433 65.9187 154.083 67.9033 156.643C67.7401 157.404 67.4207 158.107 67.5647 158.502C67.9022 159.425 72.1801 158.874 72.834 155.893C73.6206 152.306 70.4271 146.049 63.6485 147.102C65.1398 145.292 66.3948 142.109 65.8882 140.332C65.518 139.036 64.502 144.633 55.2809 147.08C50.7288 148.289 46.3637 147.444 42.4527 144.56C38.3354 141.526 38.1579 138.711 37.0103 136.829C37.1103 136.77 37.2065 136.709 37.2989 136.647C41.2779 140.47 45.7705 143.012 51.0059 143.132C53.9282 143.202 56.8737 142.564 58.9909 141.173C65.4265 136.945 63.5791 125.459 56.9427 125.215C52.2333 125.044 50.3381 129.345 50.9831 130.048C51.2133 130.299 51.8576 129.341 53.031 128.864C54.2046 128.384 55.9073 128.384 56.9659 129.276C58.9247 130.918 58.7637 135.226 53.9054 136.501C44.8989 138.864 34.396 127.153 36.5563 115.94C38.5831 105.419 46.7431 105.707 49.3496 109.283C51.0383 111.599 49.4467 114.829 46.9794 115.528C44.6343 116.191 43.594 113.635 42.8151 113.795C42.3781 113.886 42.0557 114.844 42.3082 116.144C43.4187 121.84 52.713 123.977 55.8514 116.472C57.2607 118.373 58.8619 120.237 60.4288 121.752C62.8336 124.076 65.1575 125.58 66.9178 127.393C71.5217 132.135 70.336 135.998 70.9675 135.747C71.3699 135.587 72.4286 134.039 72.9348 131.963C73.4409 129.891 73.3945 127.291 73.0152 125.135C71.6353 117.306 64.3642 115.19 59.221 109.396C56.2337 106.031 55.0034 101.552 57.8977 98.0448C61.7779 93.3434 68.233 96.2022 67.1365 101.406C66.4223 104.797 63.7864 104.37 63.7309 104.815C63.6467 105.485 65.514 107.834 68.4477 107.153C74.4422 105.758 75.2711 92.7098 66.5678 88.3908C69.8077 85.8561 72.1657 82.4111 73.478 78.6055V64.8983C71.5799 59.7671 67.6769 55.0585 63.8393 51.3876C67.7346 47.3782 70.3984 42.4947 70.9288 37.5274C72.1933 40.794 72.7488 44.2537 73.3247 46.1728C73.3762 46.344 73.4273 46.4969 73.478 46.6389L73.4997 39.7052L73.5222 46.6389C73.5725 46.4969 73.6236 46.344 73.675 46.1728Z" fill="#939393"/>
</svg>
