<svg width="74" height="50" viewBox="0 0 74 50" fill="none" xmlns="http://www.w3.org/2000/svg">
<path fill-rule="evenodd" clip-rule="evenodd" d="M0.957684 43.2122C1.06311 45.0048 1.24445 46.6811 0.91767 47.8411C0.591132 49.0037 -0.243282 49.6526 0.0685628 49.7905C0.378436 49.9284 1.83213 49.5553 3.38305 48.3629C4.79701 47.276 6.29072 45.5131 7.38029 43.6961C9.74 48.198 14.54 50.3042 19.0662 49.9635C20.6718 50.0771 22.3532 49.9311 24.2159 49.4444C27.01 48.7144 30.2106 47.2219 33.1014 46.4918C35.9938 45.7618 38.5728 45.7943 40.6643 46.4757C42.753 47.157 44.3543 48.4873 45.0406 48.5522C45.7241 48.617 45.4981 47.4166 44.7138 46.1431C43.9295 44.8696 42.5896 43.5258 41.021 42.5849C39.4551 41.6439 37.6605 41.1086 35.5837 40.8409C33.5105 40.5732 31.1587 40.5732 28.6913 41.1572L28.6598 41.1654C28.4596 38.3832 26.2851 36.1958 23.9463 35.9984C22.33 35.8632 20.9414 36.869 20.8026 37.3557C20.6634 37.8424 21.7736 37.8072 22.4586 38.3832C24.0348 39.7026 22.9918 43.1229 19.6413 43.223C15.8592 43.3339 12.6964 40.1109 13.6237 35.3576C14.637 30.1555 19.8099 28.2358 25.0419 28.9225C34.5935 30.1744 44.4523 43.423 58.7686 48.1412C62.6738 49.4282 66.5927 49.9311 70.3725 49.7662C71.4619 49.8689 72.592 49.8149 74 49.6202V38.3102C73.6051 38.4643 73.1966 38.5968 72.7691 38.7076C57.7365 42.5389 48.126 28.252 33.8201 21.8494C28.94 19.6647 24.2181 18.8725 19.8965 19.5566C10.2638 21.6579 0.369772 33.0623 0.957684 43.2122ZM74 12.3104C66.5464 12.0508 59.2207 16.3066 59.1663 23.7854C59.1145 30.799 65.9963 33.9868 70.1874 31.5561C71.3448 30.8882 71.9221 29.877 71.9085 29.5471C71.8867 29.0091 69.6209 30.5692 67.5213 28.4818C63.6324 24.6235 67.9734 18.7454 74 20.4867V12.3104ZM74 0C70.9526 0.129752 67.8508 0.689441 64.6782 1.39246C59.0519 2.64159 55.577 4.30441 51.0264 2.65511C49.6375 2.15218 48.6571 1.50597 48.4447 1.87909C48.0661 2.54428 49.8444 6.362 53.3303 7.77884C58.5563 9.9067 66.5246 6.76762 74 7.69498V0Z" fill="#939393"/>
</svg>
