<svg width="128" height="70" viewBox="0 0 128 70" fill="none" xmlns="http://www.w3.org/2000/svg">
<path fill-rule="evenodd" clip-rule="evenodd" d="M57.9119 34.9999C58.2228 34.7759 58.5183 34.5355 58.7938 34.277C59.6461 33.4807 60.3007 32.5315 60.7592 31.5027C63.0752 35.3808 63.0752 34.6192 60.7592 38.4973C60.3007 37.4685 59.6461 36.5175 58.7938 35.7209C58.5183 35.4642 58.2228 35.2242 57.9119 34.9999ZM28.4854 34.9999C28.9491 34.7372 29.3959 34.4624 29.8173 34.1872C31.2219 33.2667 32.3449 32.3359 33.4955 31.7757C34.6457 31.2158 35.8227 31.0302 36.7456 31.0955C37.6691 31.1627 38.3377 31.4825 38.5113 31.3766C38.6856 31.2706 38.3643 30.737 37.6286 30.2584C36.8931 29.7777 35.7429 29.3521 34.5656 29.2054C33.3884 29.0585 32.185 29.1931 30.834 29.6716C29.4831 30.1505 27.9847 30.9773 26.6874 31.5091C25.3899 32.0427 24.2933 32.2829 23.3033 32.3217C22.3134 32.3622 21.4307 32.2016 20.6817 31.9223C19.9326 31.6433 19.3174 31.2442 18.9354 30.9244C18.5539 30.6046 18.4058 30.3642 18.3051 29.9101C18.2042 29.4579 18.1509 28.7919 18.278 28.1604C18.4051 27.5271 18.7126 26.9284 19.2678 26.5475C19.823 26.1684 20.6252 26.0097 21.2606 26.0953C21.8959 26.1808 22.3641 26.5149 22.699 26.9874C23.034 27.4599 23.2355 28.073 23.1623 28.5394C23.0893 29.0057 22.7416 29.3255 23.0091 29.4313C23.2766 29.5395 24.1593 29.4313 25.216 29.0464C26.2726 28.6595 27.5032 27.9935 28.921 27.2072C30.3389 26.4211 31.9441 25.5166 33.6562 24.37C35.3683 23.2254 37.1874 21.8403 38.8058 20.7078C40.4243 19.5754 41.8419 18.6977 43.5407 18.1641C45.2395 17.6324 47.2192 17.4449 48.8778 17.8056C49.8232 18.009 50.6644 18.3921 51.3716 18.8443C51.5358 18.9828 51.6968 19.1397 51.8435 19.3147C52.3879 19.9686 52.7387 20.9015 52.7797 21.712C52.8204 22.5228 52.5523 23.2133 52.1425 23.7367C51.7328 24.2621 51.1818 24.6246 50.5544 24.8162C49.9271 25.0097 49.2228 25.032 48.6076 24.7754C47.9927 24.5187 47.4661 23.983 47.1798 23.4637C46.8932 22.9443 46.8464 22.4433 46.9048 22.099C46.9635 21.7547 47.1277 21.5675 47.3738 21.4454C47.6197 21.323 47.948 21.264 47.9071 21.1356C47.8658 21.0074 47.4558 20.8099 46.9225 20.8565C46.389 20.9015 45.7332 21.1948 45.2935 21.6673C44.8541 22.1398 44.6312 22.7934 44.5612 23.3884C44.4906 23.983 44.5726 24.5187 44.7193 24.9404C44.8657 25.3601 45.0767 25.6633 45.3109 25.9892C45.5457 26.3172 45.8032 26.6675 46.1493 26.9771C46.4948 27.2846 46.9284 27.5536 47.5962 27.8224C48.2642 28.0911 49.1665 28.3581 50.2448 28.411C51.323 28.4639 52.5769 28.3009 53.5846 27.8795C54.5428 27.4802 55.2787 26.8489 55.973 26.0768C56.0264 26.8284 56.0039 27.5799 55.8239 28.2399C55.5561 29.2175 54.9412 29.9896 54.1385 30.5498C53.3359 31.1097 52.3463 31.4561 51.4031 31.5762C50.4601 31.6962 49.5638 31.5883 48.6007 31.2421C47.6379 30.896 46.6082 30.3092 45.4241 29.4905C44.2403 28.6718 42.9031 27.6186 41.6454 26.8997C40.3881 26.1808 39.2108 25.796 38.0876 25.7225C36.9638 25.6491 35.8941 25.8876 35.2252 26.1277C34.5561 26.3682 34.2886 26.6086 34.7235 26.7999C35.1581 26.9935 36.2951 27.1401 37.586 27.859C38.8767 28.5781 40.3212 29.8715 41.5987 31.1566C42.8761 32.4417 43.9862 33.7189 45.2303 34.6903C45.3672 34.7982 45.5052 34.9001 45.6454 34.9999C45.5052 35.0999 45.3672 35.2015 45.2303 35.3097C43.9862 36.2811 42.8761 37.558 41.5987 38.8434C40.3212 40.1286 38.8767 41.4219 37.586 42.1408C36.2951 42.86 35.1581 43.0066 34.7235 43.2001C34.2886 43.3915 34.5561 43.6317 35.2252 43.8722C35.8941 44.1125 36.9638 44.3508 38.0876 44.2776C39.2108 44.2042 40.3881 43.8192 41.6454 43.1003C42.9031 42.3793 44.2403 41.3282 45.4241 40.5095C46.6082 39.6908 47.6379 39.1041 48.6007 38.7579C49.5638 38.4117 50.4601 38.3036 51.4031 38.4238C52.3463 38.5439 53.3359 38.8903 54.1385 39.4505C54.9412 40.0104 55.5561 40.7824 55.8239 41.7599C56.0039 42.4201 56.0264 43.1717 55.973 43.9231C55.2787 43.1511 54.5428 42.5199 53.5846 42.1187C52.5769 41.6988 51.323 41.5361 50.2448 41.589C49.1665 41.642 48.2642 41.9089 47.5962 42.1776C46.9284 42.4464 46.4948 42.7152 46.1493 43.025C45.8032 43.3325 45.5457 43.6828 45.3109 44.0107C45.0767 44.3366 44.8657 44.64 44.7193 45.0597C44.5726 45.4792 44.4906 46.0169 44.5612 46.6117C44.6312 47.2064 44.8541 47.8602 45.2935 48.3328C45.7332 48.8053 46.389 49.0965 46.9225 49.1434C47.4558 49.1902 47.8658 48.9926 47.9071 48.8643C47.948 48.736 47.6197 48.677 47.3738 48.5548C47.1277 48.4325 46.9635 48.2452 46.9048 47.9009C46.8464 47.5567 46.8932 47.0556 47.1798 46.5363C47.4661 46.0169 47.9927 45.4812 48.6076 45.2246C49.2228 44.9679 49.9271 44.9904 50.5544 45.1818C51.1818 45.3754 51.7328 45.7379 52.1425 46.2613C52.5523 46.7869 52.8204 47.4753 52.7797 48.2879C52.7387 49.0986 52.3879 50.0314 51.8435 50.6852C51.6968 50.8604 51.5358 51.0172 51.3716 51.1557C50.6644 51.6079 49.8232 51.9908 48.8778 52.1945C47.2192 52.555 45.2395 52.3677 43.5407 51.836C41.8419 51.3023 40.4243 50.4245 38.8058 49.2921C37.1874 48.1596 35.3683 46.7747 33.6562 45.63C31.9441 44.4832 30.3389 43.5789 28.921 42.7929C27.5032 42.0065 26.2726 41.3405 25.216 40.9536C24.1593 40.5685 23.2766 40.4605 23.0091 40.5685C22.7416 40.6745 23.0893 40.9941 23.1623 41.4606C23.2355 41.9271 23.034 42.5401 22.699 43.0127C22.3641 43.4852 21.8959 43.8172 21.2606 43.9048C20.6252 43.9903 19.823 43.8315 19.2678 43.4528C18.7126 43.0719 18.4051 42.473 18.278 41.8394C18.1509 41.2081 18.2042 40.5421 18.3051 40.0899C18.4058 39.6358 18.5539 39.3955 18.9354 39.0756C19.3174 38.7579 19.9326 38.3567 20.6817 38.0774C21.4307 37.7987 22.3134 37.6375 23.3033 37.6784C24.2933 37.717 25.3899 37.9574 26.6874 38.491C27.9847 39.0227 29.4831 39.8496 30.834 40.3281C32.185 40.8069 33.3884 40.9412 34.5656 40.7946C35.7429 40.648 36.8931 40.2223 37.6286 39.7416C38.3643 39.2631 38.6856 38.7295 38.5113 38.6234C38.3377 38.5175 37.6691 38.8374 36.7456 38.9024C35.8227 38.9695 34.6457 38.7845 33.4955 38.2241C32.3449 37.6642 31.2219 36.7333 29.8173 35.8127C29.3959 35.5377 28.9491 35.2626 28.4854 34.9999ZM63.3925 16.0945C64.7421 16.0945 65.8364 17.1843 65.8364 18.5287C65.8364 19.8728 64.7421 20.9626 63.3925 20.9626C62.0429 20.9626 60.9487 19.8728 60.9487 18.5287C60.9487 17.1843 62.0429 16.0945 63.3925 16.0945ZM63.3925 53.9053C64.7421 53.9053 65.8364 52.8157 65.8364 51.4714C65.8364 50.1271 64.7421 49.0375 63.3925 49.0375C62.0429 49.0375 60.9487 50.1271 60.9487 51.4714C60.9487 52.8157 62.0429 53.9053 63.3925 53.9053ZM68.8732 34.9999C68.5626 34.7759 68.2667 34.5355 67.9918 34.277C67.1389 33.4807 66.4846 32.5315 66.0262 31.5027C63.7098 35.3808 63.7098 34.6192 66.0262 38.4973C66.4846 37.4685 67.1389 36.5175 67.9918 35.7209C68.2667 35.4642 68.5626 35.2242 68.8732 34.9999ZM98.2996 34.9999C97.8359 34.7372 97.3894 34.4624 96.968 34.1872C95.5632 33.2667 94.4401 32.3359 93.2896 31.7757C92.1393 31.2158 90.9621 31.0302 90.0394 31.0955C89.1162 31.1627 88.4474 31.4825 88.2737 31.3766C88.0997 31.2706 88.4207 30.737 89.1567 30.2584C89.8922 29.7777 91.0421 29.3521 92.2191 29.2054C93.3964 29.0585 94.6003 29.1931 95.9513 29.6716C97.3022 30.1505 98.8004 30.9773 100.098 31.5091C101.395 32.0427 102.492 32.2829 103.482 32.3217C104.472 32.3622 105.354 32.2016 106.103 31.9223C106.853 31.6433 107.468 31.2442 107.85 30.9244C108.231 30.6046 108.379 30.3642 108.48 29.9101C108.581 29.4579 108.634 28.7919 108.507 28.1604C108.38 27.5271 108.072 26.9284 107.517 26.5475C106.962 26.1684 106.16 26.0097 105.525 26.0953C104.889 26.1808 104.421 26.5149 104.086 26.9874C103.751 27.4599 103.55 28.073 103.623 28.5394C103.696 29.0057 104.044 29.3255 103.776 29.4313C103.509 29.5395 102.626 29.4313 101.569 29.0464C100.512 28.6595 99.2821 27.9935 97.8642 27.2072C96.4461 26.4211 94.8412 25.5166 93.1291 24.37C91.4171 23.2254 89.5977 21.8403 87.9792 20.7078C86.361 19.5754 84.9432 18.6977 83.2443 18.1641C81.5457 17.6324 79.5659 17.4449 77.9075 17.8056C76.9621 18.009 76.1209 18.3921 75.4137 18.8443C75.2495 18.9828 75.0885 19.1397 74.9415 19.3147C74.3972 19.9686 74.0466 20.9015 74.0056 21.712C73.9646 22.5228 74.2333 23.2133 74.6427 23.7367C75.0525 24.2621 75.6033 24.6246 76.2306 24.8162C76.8582 25.0097 77.5622 25.032 78.1774 24.7754C78.7926 24.5187 79.3189 23.983 79.6053 23.4637C79.8921 22.9443 79.9389 22.4433 79.8802 22.099C79.8215 21.7547 79.6576 21.5675 79.4117 21.4454C79.1654 21.323 78.8373 21.264 78.8783 21.1356C78.9192 21.0074 79.3295 20.8099 79.8628 20.8565C80.396 20.9015 81.0522 21.1948 81.4915 21.6673C81.9312 22.1398 82.1538 22.7934 82.2241 23.3884C82.2947 23.983 82.2125 24.5187 82.066 24.9404C81.9196 25.3601 81.7086 25.6633 81.4744 25.9892C81.2396 26.3172 80.9818 26.6675 80.6357 26.9771C80.2905 27.2846 79.8567 27.5536 79.1886 27.8224C78.5211 28.0911 77.6185 28.3581 76.5404 28.411C75.4623 28.4639 74.2084 28.3009 73.2004 27.8795C72.242 27.4802 71.5066 26.8489 70.8121 26.0768C70.7587 26.8284 70.7814 27.5799 70.9615 28.2399C71.229 29.2175 71.8441 29.9896 72.6468 30.5498C73.4492 31.1097 74.4389 31.4561 75.3819 31.5762C76.325 31.6962 77.2212 31.5883 78.1843 31.2421C79.1474 30.896 80.1771 30.3092 81.3609 29.4905C82.5448 28.6718 83.8825 27.6186 85.1396 26.8997C86.3972 26.1808 87.5739 25.796 88.6978 25.7225C89.8213 25.6491 90.8912 25.8876 91.5601 26.1277C92.229 26.3682 92.4965 26.6086 92.0618 26.7999C91.627 26.9935 90.4896 27.1401 89.1993 27.859C87.9086 28.5781 86.4638 29.8715 85.1866 31.1566C83.9092 32.4417 82.7989 33.7189 81.5547 34.6903C81.4181 34.7982 81.2798 34.9001 81.1397 34.9999C81.2798 35.0999 81.4181 35.2015 81.5547 35.3097C82.7989 36.2811 83.9092 37.558 85.1866 38.8434C86.4638 40.1286 87.9086 41.4219 89.1993 42.1408C90.4896 42.86 91.627 43.0066 92.0618 43.2001C92.4965 43.3915 92.229 43.6317 91.5601 43.8722C90.8912 44.1125 89.8213 44.3508 88.6978 44.2776C87.5739 44.2042 86.3972 43.8192 85.1396 43.1003C83.8825 42.3793 82.5448 41.3282 81.3609 40.5095C80.1771 39.6908 79.1474 39.1041 78.1843 38.7579C77.2212 38.4117 76.325 38.3036 75.3819 38.4238C74.4389 38.5439 73.4492 38.8903 72.6468 39.4505C71.8441 40.0104 71.229 40.7824 70.9615 41.7599C70.7814 42.4201 70.7587 43.1717 70.8121 43.9231C71.5066 43.1511 72.242 42.5199 73.2004 42.1187C74.2084 41.6988 75.4623 41.5361 76.5404 41.589C77.6185 41.642 78.5211 41.9089 79.1886 42.1776C79.8567 42.4464 80.2905 42.7152 80.6357 43.025C80.9818 43.3325 81.2396 43.6828 81.4744 44.0107C81.7086 44.3366 81.9196 44.64 82.066 45.0597C82.2125 45.4792 82.2947 46.0169 82.2241 46.6117C82.1538 47.2064 81.9312 47.8602 81.4915 48.3328C81.0522 48.8053 80.396 49.0965 79.8628 49.1434C79.3295 49.1902 78.9192 48.9926 78.8783 48.8643C78.8373 48.736 79.1654 48.677 79.4117 48.5548C79.6576 48.4325 79.8215 48.2452 79.8802 47.9009C79.9389 47.5567 79.8921 47.0556 79.6053 46.5363C79.3189 46.0169 78.7926 45.4812 78.1774 45.2246C77.5622 44.9679 76.8582 44.9904 76.2306 45.1818C75.6033 45.3754 75.0525 45.7379 74.6427 46.2613C74.2333 46.7869 73.9646 47.4753 74.0056 48.2879C74.0466 49.0986 74.3972 50.0314 74.9415 50.6852C75.0885 50.8604 75.2495 51.0172 75.4137 51.1557C76.1209 51.6079 76.9621 51.9908 77.9075 52.1945C79.5659 52.555 81.5457 52.3677 83.2443 51.836C84.9432 51.3023 86.361 50.4245 87.9792 49.2921C89.5977 48.1596 91.4171 46.7747 93.1291 45.63C94.8412 44.4832 96.4461 43.5789 97.8642 42.7929C99.2821 42.0065 100.512 41.3405 101.569 40.9536C102.626 40.5685 103.509 40.4605 103.776 40.5685C104.044 40.6745 103.696 40.9941 103.623 41.4606C103.55 41.9271 103.751 42.5401 104.086 43.0127C104.421 43.4852 104.889 43.8172 105.525 43.9048C106.16 43.9903 106.962 43.8315 107.517 43.4528C108.072 43.0719 108.38 42.473 108.507 41.8394C108.634 41.2081 108.581 40.5421 108.48 40.0899C108.379 39.6358 108.231 39.3955 107.85 39.0756C107.468 38.7579 106.853 38.3567 106.103 38.0774C105.354 37.7987 104.472 37.6375 103.482 37.6784C102.492 37.717 101.395 37.9574 100.098 38.491C98.8004 39.0227 97.3022 39.8496 95.9513 40.3281C94.6003 40.8069 93.3964 40.9412 92.2191 40.7946C91.0421 40.648 89.8922 40.2223 89.1567 39.7416C88.4207 39.2631 88.0997 38.7295 88.2737 38.6234C88.4474 38.5175 89.1162 38.8374 90.0394 38.9024C90.9621 38.9695 92.1393 38.7845 93.2896 38.2241C94.4401 37.6642 95.5632 36.7333 96.968 35.8127C97.3894 35.5377 97.8359 35.2626 98.2996 34.9999ZM63.3925 22.5247C61.1763 22.5247 59.3797 20.7365 59.3797 18.5287C59.3797 16.3228 61.1763 14.5324 63.3925 14.5324C65.6087 14.5324 67.4057 16.3228 67.4057 18.5287C67.4057 20.7365 65.6087 22.5247 63.3925 22.5247ZM63.3925 55.4676C61.1763 55.4676 59.3797 53.6773 59.3797 51.4714C59.3797 49.2636 61.1763 47.4753 63.3925 47.4753C65.6087 47.4753 67.4057 49.2636 67.4057 51.4714C67.4057 53.6773 65.6087 55.4676 63.3925 55.4676ZM61.6799 4.03887C61.2763 4.73332 60.7964 5.45247 60.3983 6.1856C59.4894 4.79862 58.1614 3.4237 56.3822 2.38919C54.4692 1.27697 52.0349 0.558069 49.6006 0.238272C47.1663 -0.0815831 44.7317 -0.0020884 42.4579 0.35645C40.184 0.717066 38.0707 1.35648 36.0041 1.89007C33.9375 2.42182 31.9177 2.84752 30.259 3.03493C28.6006 3.22026 27.3031 3.16707 26.2329 2.95541C25.163 2.74138 24.3202 2.36893 23.9859 2.35444C23.6514 2.34231 23.8255 2.68851 24.2468 3.29341C24.6682 3.90044 25.3368 4.76602 26.427 5.51756C27.517 6.27118 29.0287 6.91088 30.9078 7.26936C32.7872 7.62975 35.0344 7.70926 37.4018 7.45655C39.7692 7.20413 42.2572 6.61734 44.4909 6.20407C46.7248 5.79259 48.7046 5.55224 50.4833 5.71124C52.2626 5.8721 53.8408 6.43017 55.0046 7.1775C56.1678 7.92299 56.9171 8.85385 57.3453 9.72779C57.7734 10.5994 57.8802 11.412 57.8135 12.1901C57.7466 12.9701 57.5058 13.7156 57.0043 14.2492C56.5025 14.7809 55.7401 15.1008 55.1315 15.3085C54.5226 15.5141 54.0682 15.6078 53.4861 15.4469C52.9044 15.288 52.1954 14.8746 51.801 14.3695C51.4065 13.8622 51.3261 13.2636 51.4065 12.7564C51.4866 12.2512 51.7272 11.8376 52.008 11.571C52.289 11.3062 52.6102 11.1861 52.911 11.139C53.2122 11.0924 53.4929 11.1188 53.4929 10.9395C53.4929 10.7602 53.2122 10.3732 52.4762 9.99441C51.7407 9.61353 50.5505 9.24079 49.2662 9.09414C47.9821 8.94755 46.6043 9.02891 45.1735 9.39374C43.7422 9.76019 42.2572 10.4141 40.8663 11.2654C39.4753 12.1188 38.1777 13.1697 36.4522 14.4898C34.7266 15.8073 32.5733 17.392 30.7341 18.6366C28.8949 19.8831 27.37 20.7894 25.5911 21.488C23.8122 22.1867 21.7787 22.6794 19.9464 22.8587C18.114 23.0401 16.482 22.9056 14.9906 22.4534C13.4994 22.0014 12.1483 21.2272 11.0649 20.2292C9.98153 19.2292 9.16547 18.0051 8.65707 16.606C8.14908 15.2087 7.94834 13.6361 8.01502 12.2981C8.08216 10.96 8.41656 9.8539 8.93145 8.98233C9.44634 8.10833 10.1418 7.46895 11.0847 7.0838C12.028 6.69685 13.2183 6.56441 14.2014 6.62365C15.1845 6.68473 15.9604 6.9372 16.6425 7.28361C17.3248 7.62974 17.9132 8.06963 18.3613 8.68059C18.8094 9.29397 19.1171 10.08 19.1171 10.9252C19.1171 11.7726 18.8094 12.6769 18.3681 13.3102C17.9266 13.9418 17.3515 14.3021 16.7429 14.4898C16.1342 14.6749 15.4924 14.6893 14.9974 14.5956C14.5024 14.5019 14.1546 14.3021 14.081 14.4427C14.0074 14.5814 14.2081 15.0621 14.6829 15.5814C15.1578 16.1005 15.9069 16.6589 16.783 16.9521C17.6592 17.2454 18.6623 17.272 19.7053 16.9724C20.7488 16.6731 21.8325 16.0477 22.5681 15.0621C23.3037 14.0763 23.6916 12.7298 23.7786 11.4588C23.8655 10.1858 23.6514 8.98833 23.2368 7.91485C22.8221 6.84345 22.207 5.89844 21.3843 4.99817C20.5619 4.09997 19.5317 3.24866 18.4348 2.6011C17.3381 1.95539 16.1744 1.51519 14.7968 1.23015C13.4191 0.942917 11.8273 0.81053 10.2753 0.975596C8.72329 1.14274 7.21097 1.60896 5.85305 2.44208C4.49491 3.27313 3.29094 4.4727 2.46874 5.57072C1.6467 6.67052 1.20608 7.6685 0.831916 8.78066C0.457981 9.89467 0.150154 11.1188 0.0430588 12.5242C-0.0637467 13.9296 0.0299545 15.5141 0.303984 17.0193C0.578304 18.5244 1.03289 19.9502 1.45425 21.0074C1.87568 22.0664 2.26341 22.759 2.57095 23.2133C2.87885 23.6653 3.10643 23.8793 3.21301 23.7448C3.32022 23.6124 3.30688 23.1317 3.64116 22.6858C3.97555 22.2396 4.65778 21.8281 5.40664 21.6612C6.15578 21.4941 6.9719 21.5736 7.60722 21.9605C8.35845 22.4181 12.1377 29.9578 12.3168 30.6639V30.664C12.4011 30.8077 12.4752 31.0647 12.6296 31.4175C12.9507 32.1484 13.6193 33.293 14.4083 34.173C14.6833 34.4786 14.9728 34.7535 15.2754 34.9999C14.9728 35.2465 14.6833 35.5193 14.4083 35.827C14.2161 36.0409 12.128 39.4586 12.128 39.4686L8.70978 46.6271C8.63701 46.8427 8.53942 47.0461 8.42061 47.2326L8.42038 47.2331L8.42032 47.2331C8.2095 47.5639 7.93199 47.8417 7.60722 48.0394C6.9719 48.4265 6.15578 48.5058 5.40664 48.3389C4.65778 48.1718 3.97555 47.7604 3.64116 47.3144C3.30688 46.8683 3.32022 46.3876 3.21301 46.2552C3.10643 46.1209 2.87885 46.3346 2.57095 46.7869C2.26341 47.241 1.87568 47.9335 1.45425 48.9926C1.03289 50.0498 0.578304 51.4755 0.303984 52.9807C0.0299545 54.4859 -0.0637467 56.0705 0.0430588 57.4758C0.150154 58.8812 0.457981 60.1054 0.831916 61.2194C1.20608 62.3315 1.6467 63.3296 2.46874 64.4294C3.29094 65.5272 4.49491 66.7269 5.85305 67.558C7.21097 68.391 8.72329 68.8574 10.2753 69.0223C11.8273 69.1893 13.4191 69.057 14.7968 68.7698C16.1744 68.4846 17.3381 68.0447 18.4348 67.3989C19.5317 66.7513 20.5619 65.8999 21.3843 64.9997C22.207 64.1015 22.8221 63.1564 23.2368 62.0851C23.6514 61.0117 23.8655 59.8141 23.7786 58.541C23.6916 57.2701 23.3037 55.9238 22.5681 54.9381C21.8325 53.9522 20.7488 53.327 19.7053 53.0275C18.6623 52.7282 17.6592 52.7546 16.783 53.0478C15.9069 53.3412 15.1578 53.8993 14.6829 54.4187C14.2081 54.9381 14.0074 55.4186 14.081 55.5572C14.1546 55.6977 14.5024 55.4982 14.9974 55.4045C15.4924 55.3107 16.1342 55.325 16.7429 55.5104C17.3515 55.6978 17.9266 56.0583 18.3681 56.6896C18.8094 57.3231 19.1171 58.2274 19.1171 59.0748C19.1171 59.92 18.8094 60.7062 18.3613 61.3192C17.9132 61.9302 17.3248 62.3702 16.6425 62.7165C15.9604 63.0627 15.1845 63.3153 14.2014 63.3764C13.2183 63.4355 12.028 63.303 11.0847 62.9161C10.1418 62.5311 9.44634 61.8916 8.93145 61.0177C8.41656 60.1461 8.08216 59.0401 8.01502 57.702C7.94834 56.3637 8.14908 54.7914 8.65707 53.3941C9.16547 51.9949 9.98153 50.7708 11.0649 49.7707C12.1483 48.7726 13.4994 47.9987 14.9906 47.5466C16.482 47.0944 18.114 46.9599 19.9464 47.1412C21.7787 47.3204 23.8122 47.8134 25.5911 48.512C27.37 49.2106 28.8949 50.117 30.7341 51.3614C32.5733 52.608 34.7266 54.1926 36.4522 55.5104C38.1777 56.8302 39.4753 57.8812 40.8663 58.7346C42.2572 59.586 43.7422 60.2398 45.1735 60.6064C46.6043 60.973 47.9821 61.0524 49.2662 60.9058C50.5505 60.7591 51.7407 60.3864 52.4762 60.0055C53.2122 59.6267 53.4929 59.2397 53.4929 59.0604C53.4929 58.8812 53.2122 58.9077 52.911 58.8608C52.6102 58.814 52.289 58.6939 52.008 58.429C51.7272 58.1622 51.4866 57.7487 51.4065 57.2437C51.3261 56.7365 51.4065 56.1376 51.801 55.6305C52.1954 55.1254 52.9044 54.7119 53.4861 54.5531C54.0682 54.3921 54.5226 54.4859 55.1315 54.6916C55.7401 54.8993 56.5025 55.219 57.0043 55.7507C57.5058 56.2844 57.7466 57.0298 57.8135 57.8098C57.8802 58.5879 57.7734 59.4006 57.3453 60.2724C56.9171 61.1461 56.1678 62.0769 55.0046 62.8224C53.8408 63.5698 52.2626 64.128 50.4833 64.2888C48.7046 64.4477 46.7248 64.2074 44.4909 63.796C42.2572 63.3825 39.7692 62.7959 37.4018 62.5433C35.0344 62.2908 32.7872 62.3703 30.9078 62.7308C29.0287 63.0892 27.517 63.7287 26.427 64.4803C25.3368 65.2339 24.6682 66.0995 24.2468 66.7065C23.8255 67.3114 23.6514 67.6577 23.9859 67.6454C24.3202 67.6312 25.163 67.2585 26.2329 67.0446C27.3031 66.8328 28.6006 66.7799 30.259 66.9651C31.9177 67.1526 33.9375 67.5783 36.0041 68.1098C38.0707 68.6435 40.184 69.283 42.4579 69.6415C44.7317 70.0021 47.1663 70.0815 49.6006 69.7617C52.0349 69.4419 54.4692 68.7229 56.3822 67.6109C58.1614 66.5762 59.4894 65.2013 60.3983 63.8143C60.7964 64.5475 61.2763 65.2665 61.6799 65.961C62.2869 67.0324 62.4903 67.4805 62.8199 68.6597C62.9452 69.1099 63.1459 69.9491 63.3925 70C63.6394 69.9491 63.8398 69.1099 63.9654 68.6597C64.2948 67.4805 64.4981 67.0324 65.1051 65.961C65.5088 65.2665 65.9889 64.5475 66.3868 63.8143C67.2959 65.2013 68.6236 66.5762 70.4031 67.6109C72.3158 68.7229 74.7501 69.4419 77.1844 69.7617C79.619 70.0815 82.0536 70.0021 84.3272 69.6415C86.6013 69.283 88.7146 68.6435 90.781 68.1098C92.8478 67.5783 94.8676 67.1526 96.526 66.9651C98.1847 66.7799 99.4822 66.8328 100.552 67.0446C101.622 67.2585 102.465 67.6312 102.799 67.6454C103.134 67.6577 102.96 67.3114 102.539 66.7065C102.117 66.0995 101.448 65.2339 100.358 64.4803C99.268 63.7287 97.7566 63.0892 95.8772 62.7308C93.9981 62.3703 91.7507 62.2908 89.3835 62.5433C87.0158 62.7959 84.5278 63.3825 82.2942 63.796C80.0603 64.2074 78.0807 64.4477 76.302 64.2888C74.5227 64.128 72.9445 63.5698 71.7807 62.8224C70.617 62.0769 69.868 61.1461 69.44 60.2724C69.0117 59.4006 68.9049 58.5879 68.972 57.8098C69.0387 57.0298 69.2792 56.2844 69.781 55.7507C70.2825 55.219 71.045 54.8993 71.6535 54.6916C72.2621 54.4859 72.7171 54.3921 73.299 54.5531C73.8806 54.7119 74.5899 55.1254 74.9841 55.6305C75.3788 56.1376 75.4592 56.7365 75.3788 57.2437C75.2984 57.7487 75.0581 58.1622 74.777 58.429C74.4961 58.6939 74.1751 58.814 73.8742 58.8608C73.5731 58.9077 73.2924 58.8812 73.2924 59.0604C73.2924 59.2397 73.5731 59.6267 74.3089 60.0055C75.0444 60.3864 76.2351 60.7591 77.5189 60.9058C78.8032 61.0524 80.1808 60.973 81.6118 60.6064C83.0431 60.2398 84.5278 59.586 85.919 58.7346C87.31 57.8812 88.6076 56.8302 90.3331 55.5104C92.0584 54.1926 94.212 52.608 96.0511 51.3614C97.8904 50.117 99.4153 49.2106 101.194 48.512C102.973 47.8134 105.006 47.3204 106.839 47.1412C108.671 46.9599 110.303 47.0944 111.795 47.5466C113.286 47.9987 114.637 48.7726 115.72 49.7707C116.803 50.7708 117.62 51.9949 118.128 53.3941C118.636 54.7914 118.837 56.3637 118.77 57.702C118.703 59.0401 118.369 60.1461 117.854 61.0177C117.339 61.8916 116.643 62.5311 115.7 62.9161C114.757 63.303 113.567 63.4355 112.584 63.3764C111.601 63.3153 110.825 63.0627 110.143 62.7165C109.46 62.3702 108.872 61.9302 108.424 61.3192C107.976 60.7062 107.668 59.92 107.668 59.0748C107.668 58.2274 107.976 57.3231 108.417 56.6896C108.859 56.0583 109.434 55.6978 110.042 55.5104C110.651 55.325 111.293 55.3107 111.788 55.4045C112.283 55.4982 112.631 55.6977 112.704 55.5572C112.778 55.4186 112.577 54.9381 112.102 54.4187C111.627 53.8993 110.878 53.3412 110.002 53.0478C109.126 52.7546 108.123 52.7282 107.08 53.0275C106.036 53.327 104.953 53.9522 104.217 54.9381C103.482 55.9238 103.094 57.2701 103.007 58.541C102.92 59.8141 103.134 61.0117 103.548 62.0851C103.963 63.1564 104.578 64.1015 105.401 64.9997C106.223 65.8999 107.253 66.7513 108.35 67.3989C109.447 68.0447 110.611 68.4846 111.988 68.7698C113.366 69.057 114.958 69.1893 116.51 69.0223C118.062 68.8574 119.574 68.391 120.932 67.558C122.29 66.7269 123.494 65.5272 124.316 64.4294C125.138 63.3296 125.579 62.3315 125.953 61.2194C126.327 60.1054 126.635 58.8812 126.742 57.4758C126.849 56.0705 126.755 54.4859 126.481 52.9807C126.207 51.4755 125.752 50.0498 125.331 48.9926C124.91 47.9335 124.522 47.241 124.214 46.7869C123.906 46.3346 123.679 46.1209 123.572 46.2552C123.465 46.3876 123.478 46.8683 123.144 47.3144C122.81 47.7604 122.127 48.1718 121.379 48.3389C120.629 48.5058 119.813 48.4265 119.178 48.0394C118.543 47.6525 118.088 46.9599 117.961 46.1616C117.834 45.3631 118.034 44.4568 118.569 43.6787C119.105 42.8986 119.974 42.2448 121.024 41.9739C122.074 41.6988 123.305 41.807 124.482 42.2998C125.658 42.7929 126.782 43.6705 127.658 44.6034C127.776 44.7296 127.89 44.8559 128 44.9843V36.8004C127.828 36.7293 127.654 36.662 127.478 36.5988C125.659 35.9594 123.572 35.8799 121.807 36.1202C120.041 36.3585 118.596 36.9186 117.419 37.6112C116.242 38.3036 115.333 39.1306 114.891 39.3831C114.45 39.6358 114.477 39.316 114.155 38.5847C113.835 37.8516 113.166 36.7049 112.377 35.827C112.102 35.5193 111.812 35.2465 111.51 34.9999C111.812 34.7535 112.102 34.4786 112.377 34.173C113.166 33.293 113.835 32.1484 114.155 31.4175C114.477 30.6841 114.45 30.3642 114.891 30.6169C115.333 30.8694 116.242 31.6962 117.419 32.3888C118.596 33.0814 120.041 33.6395 121.807 33.8798C123.572 34.1201 125.659 34.0406 127.478 33.4012C127.654 33.338 127.828 33.2709 128 33.1996V25.0157C127.89 25.1439 127.776 25.2703 127.658 25.3966C126.782 26.3295 125.658 27.2072 124.482 27.7002C123.305 28.193 122.074 28.3009 121.024 28.0283C119.974 27.7553 119.105 27.1014 118.569 26.3214C118.034 25.5433 117.834 24.6369 117.961 23.8385C118.088 23.0401 118.543 22.3475 119.178 21.9605C119.813 21.5736 120.629 21.4941 121.379 21.6612C122.127 21.8281 122.81 22.2396 123.144 22.6858C123.478 23.1317 123.465 23.6124 123.572 23.7448C123.679 23.8793 123.906 23.6653 124.214 23.2133C124.522 22.759 124.91 22.0664 125.331 21.0074C125.752 19.9502 126.207 18.5244 126.481 17.0193C126.755 15.5141 126.849 13.9296 126.742 12.5242C126.635 11.1188 126.327 9.89467 125.953 8.78066C125.579 7.6685 125.138 6.67052 124.316 5.57072C123.494 4.4727 122.29 3.27313 120.932 2.44208C119.574 1.60896 118.062 1.14274 116.51 0.975596C114.958 0.81053 113.366 0.942917 111.988 1.23015C110.611 1.51519 109.447 1.95539 108.35 2.6011C107.253 3.24866 106.223 4.09997 105.401 4.99817C104.578 5.89844 103.963 6.84345 103.548 7.91485C103.134 8.98833 102.92 10.1858 103.007 11.4588C103.094 12.7298 103.482 14.0763 104.217 15.0621C104.953 16.0477 106.036 16.6731 107.08 16.9724C108.123 17.272 109.126 17.2454 110.002 16.9521C110.878 16.6589 111.627 16.1005 112.102 15.5814C112.577 15.0621 112.778 14.5814 112.704 14.4427C112.631 14.3021 112.283 14.5019 111.788 14.5956C111.293 14.6893 110.651 14.6749 110.042 14.4898C109.434 14.3021 108.859 13.9418 108.417 13.3102C107.976 12.6769 107.668 11.7726 107.668 10.9252C107.668 10.08 107.976 9.29397 108.424 8.68059C108.872 8.06963 109.46 7.62974 110.143 7.28361C110.825 6.9372 111.601 6.68473 112.584 6.62365C113.567 6.56441 114.757 6.69685 115.7 7.0838C116.643 7.46895 117.339 8.10833 117.854 8.98233C118.369 9.8539 118.703 10.96 118.77 12.2981C118.837 13.6361 118.636 15.2087 118.128 16.606C117.62 18.0051 116.803 19.2292 115.72 20.2292C114.637 21.2272 113.286 22.0014 111.795 22.4534C110.303 22.9056 108.671 23.0401 106.839 22.8587C105.006 22.6794 102.973 22.1867 101.194 21.488C99.4153 20.7894 97.8904 19.8831 96.0511 18.6366C94.212 17.392 92.0584 15.8073 90.3331 14.4898C88.6076 13.1697 87.31 12.1188 85.919 11.2654C84.5278 10.4141 83.0431 9.76019 81.6118 9.39374C80.1808 9.02891 78.8032 8.94755 77.5189 9.09414C76.2351 9.24079 75.0444 9.61353 74.3089 9.99441C73.5731 10.3732 73.2924 10.7602 73.2924 10.9395C73.2924 11.1188 73.5731 11.0924 73.8742 11.139C74.1751 11.1861 74.4961 11.3062 74.777 11.571C75.0581 11.8376 75.2984 12.2512 75.3788 12.7564C75.4592 13.2636 75.3788 13.8622 74.9841 14.3695C74.5899 14.8746 73.8806 15.288 73.299 15.4469C72.7171 15.6078 72.2621 15.5141 71.6535 15.3085C71.045 15.1008 70.2825 14.7809 69.781 14.2492C69.2792 13.7156 69.0387 12.9701 68.972 12.1901C68.9049 11.412 69.0117 10.5994 69.44 9.72779C69.868 8.85385 70.617 7.92299 71.7807 7.1775C72.9445 6.43017 74.5227 5.8721 76.302 5.71124C78.0807 5.55224 80.0603 5.79259 82.2942 6.20407C84.5278 6.61734 87.0158 7.20413 89.3835 7.45655C91.7507 7.70926 93.9981 7.62975 95.8772 7.26936C97.7566 6.91088 99.268 6.27118 100.358 5.51756C101.448 4.76602 102.117 3.90044 102.539 3.29341C102.96 2.68851 103.134 2.34231 102.799 2.35444C102.465 2.36893 101.622 2.74138 100.552 2.95541C99.4822 3.16707 98.1847 3.22026 96.526 3.03493C94.8676 2.84752 92.8478 2.42182 90.781 1.89007C88.7146 1.35648 86.6013 0.717066 84.3272 0.35645C82.0536 -0.0020884 79.619 -0.0815831 77.1844 0.238272C74.7501 0.558069 72.3158 1.27697 70.4031 2.38919C68.6236 3.4237 67.2959 4.79862 66.3868 6.1856C65.9889 5.45247 65.5088 4.73332 65.1051 4.03887C64.4981 2.96753 64.2948 2.51951 63.9654 1.34014C63.8398 0.890036 63.6394 0.051096 63.3925 0C63.1459 0.051096 62.9452 0.890036 62.8199 1.34014C62.4903 2.51951 62.2869 2.96753 61.6799 4.03887Z" fill="#939393"/>
</svg>
